<?xml version="1.0" encoding="utf-8"?>
<!-- Generator: Adobe Illustrator 18.1.1, SVG Export Plug-In . SVG Version: 6.00 Build 0)  -->
<svg version="1.1" id="Layer_2" xmlns="http://www.w3.org/2000/svg" xmlns:xlink="http://www.w3.org/1999/xlink" x="0px" y="0px"
	 viewBox="3059.8 -10.8 253.4 559.8" enable-background="new 3059.8 -10.8 253.4 559.8" xml:space="preserve">
<g>
	<g>
		<path fill="#AEA198" stroke="#998B82" stroke-width="1.1" stroke-miterlimit="10" d="M3064.8,438.9c-0.3-1.1-0.8-2.4-1.1-4.3
			c-0.4-2.2-0.2-3.9,0.5-5.1c0.7-1.1,1.9-1.9,3.4-2.2c1.5-0.3,2.9,0,3.9,0.7c1.5,1,2.5,2.7,2.8,5c0.1,0.7,0.2,1.3,0.2,1.9l7.1-1.2
			l0.4,2.3L3064.8,438.9z M3072.9,435.2c0-0.5,0-1.1-0.1-1.9c-0.4-2.7-2.1-4.2-4.5-3.7c-2.3,0.4-3.2,2.2-2.6,4.7
			c0.2,1,0.4,1.7,0.5,2.1L3072.9,435.2z"/>
		<path fill="#AEA198" stroke="#998B82" stroke-width="1.1" stroke-miterlimit="10" d="M3079.1,415.9l-1.5,0.3v0.1
			c1.1,0.5,2.1,1.9,2.3,3.6c0.3,2.5-1.3,4-3.2,4.3c-3.1,0.3-5-2.2-5.6-7.1h-0.2c-1.1,0.1-2.8,0.7-2.6,3.2c0.1,1.2,0.7,2.4,1.3,3.2
			l-1.4,0.7c-0.8-1-1.4-2.4-1.6-4c-0.4-3.8,2.1-5.1,4.6-5.4l4.7-0.5c1.1-0.1,2.2-0.3,2.9-0.5L3079.1,415.9z M3072.8,417.1
			c0.2,2.5,1,5.2,3.5,5c1.5-0.2,2.1-1.2,2-2.4c-0.2-1.6-1.3-2.5-2.5-2.8c-0.2,0-0.5-0.1-0.8,0L3072.8,417.1z"/>
		<path fill="#AEA198" stroke="#998B82" stroke-width="1.1" stroke-miterlimit="10" d="M3062.1,408.9l3.6-0.2l-0.2-3.3l1.7-0.1
			l0.2,3.3l6.9-0.4c1.5-0.1,2.4-0.7,2.3-1.9c0-0.7-0.1-1.1-0.2-1.3l1.7-0.2c0.2,0.4,0.4,1.1,0.4,2c0.1,1.1-0.2,2-0.8,2.5
			c-0.7,0.7-1.7,1-3.3,1.1l-6.9,0.4l0.1,2l-1.7,0.1l-0.1-2l-3.1,0.2L3062.1,408.9z"/>
		<path fill="#AEA198" stroke="#998B82" stroke-width="1.1" stroke-miterlimit="10" d="M3061.8,399.7l3.6-0.1l-0.1-3.3h1.7l0.1,3.3
			l6.9-0.1c1.5,0,2.4-0.5,2.4-1.7c0-0.7-0.1-1.1-0.2-1.3l1.7-0.1c0.2,0.4,0.3,1.1,0.3,2.1c0,1.1-0.3,2-0.9,2.5c-0.7,0.7-1.7,1-3.3,1
			l-6.9,0.1v2h-1.7v-2l-3.1,0.1L3061.8,399.7z"/>
		<path fill="#AEA198" stroke="#998B82" stroke-width="1.1" stroke-miterlimit="10" d="M3061.8,390.9c0.8,0,1.4,0.5,1.4,1.5
			c0,0.8-0.7,1.4-1.4,1.4c-0.8,0-1.4-0.7-1.4-1.4C3060.4,391.3,3061,390.8,3061.8,390.9z M3078.2,393.6l-12.8-0.1v-2.3l12.8,0.1
			V393.6z"/>
		<path fill="#AEA198" stroke="#998B82" stroke-width="1.1" stroke-miterlimit="10" d="M3072,366.4c-2.5-0.1-5.5-0.2-7.7-0.4v0.1
			c2,0.8,4.2,1.7,6.4,2.8l8.3,3.9l-0.2,1.7l-8.7,2c-2.5,0.5-4.9,1.1-7.1,1.3l0,0c2.2,0.2,5.1,0.7,7.9,1.1l7.6,1.2l-0.2,2.2
			l-17.6-2.9l0.3-2.9l8.9-2.2c2.2-0.5,4.3-0.9,6.1-1.2V373c-1.7-0.7-3.6-1.4-5.8-2.4l-8.3-3.9l0.3-2.9l17.8,0.7l-0.2,2.2L3072,366.4
			z"/>
		<path fill="#AEA198" stroke="#998B82" stroke-width="1.1" stroke-miterlimit="10" d="M3082,354.2l-1.6-0.1v0.1
			c0.9,0.9,1.5,2.4,1.2,4.2c-0.4,2.5-2.4,3.5-4.3,3.2c-3.1-0.5-4.2-3.5-3.3-8.4h-0.2c-1-0.2-2.9-0.2-3.4,2.3
			c-0.2,1.2-0.1,2.4,0.3,3.4l-1.6,0.2c-0.4-1.2-0.7-2.7-0.4-4.3c0.7-3.8,3.5-4.3,5.9-3.8l4.7,0.9c1.1,0.2,2.2,0.3,3.1,0.3
			L3082,354.2z M3075.4,353.4c-0.4,2.5-0.5,5.4,1.9,5.8c1.4,0.2,2.3-0.5,2.5-1.7c0.3-1.6-0.5-2.8-1.5-3.4c-0.2-0.1-0.4-0.2-0.7-0.2
			L3075.4,353.4z"/>
		<path fill="#AEA198" stroke="#998B82" stroke-width="1.1" stroke-miterlimit="10" d="M3084.6,340c0.2,0.7,0.3,2.1-0.1,3.7
			c-0.9,3.7-3.9,5.6-7.9,4.7c-3.8-0.9-6-4.2-5-8.3c0.3-1.3,0.9-2.4,1.3-2.9l1.6,0.9c-0.4,0.4-0.9,1.2-1.2,2.5
			c-0.7,2.8,1.1,4.8,3.6,5.5c2.8,0.7,5-0.8,5.6-3.2c0.3-1.3,0.1-2.2,0-2.9L3084.6,340z"/>
		<path fill="#AEA198" stroke="#998B82" stroke-width="1.1" stroke-miterlimit="10" d="M3068.7,332.6l0.7-2.2l8.3,2.4v-0.1
			c-0.5-0.7-1-1.3-1.4-1.9l-4.8-7.2l0.8-2.7l5.4,8.4l11.8-3.7l-0.8,2.6l-10,3.1l1.4,2.2l6.4,2l-0.7,2.2L3068.7,332.6z"/>
		<path fill="#AEA198" stroke="#998B82" stroke-width="1.1" stroke-miterlimit="10" d="M3092.5,317.4l-1.5-0.4v0.1
			c0.7,1,1,2.6,0.3,4.3c-1,2.4-3.1,2.9-4.8,2.3c-2.8-1.1-3.4-4.3-1.6-8.9l-0.2-0.1c-1-0.4-2.8-0.8-3.8,1.6c-0.4,1.1-0.5,2.4-0.3,3.4
			l-1.6-0.1c-0.2-1.2-0.1-2.8,0.4-4.3c1.4-3.6,4.3-3.5,6.6-2.6l4.4,1.7c1,0.4,2.1,0.8,2.9,0.9L3092.5,317.4z M3086.3,315.4
			c-1,2.3-1.6,5.1,0.7,6c1.4,0.5,2.4-0.1,2.8-1.2c0.7-1.5,0-2.9-0.9-3.6c-0.2-0.1-0.4-0.3-0.7-0.4L3086.3,315.4z"/>
		<path fill="#AEA198" stroke="#998B82" stroke-width="1.1" stroke-miterlimit="10" d="M3083.4,306.5l8.1,0.8c0.9,0.1,2,0.2,2.7,0.4
			l0,0c-0.5-0.5-1.3-1.2-2.1-1.9l-5.7-5.5l1.1-2.2l6.7,7.1c3.2,3.4,4.7,5.4,5.2,7.4c0.4,1.4,0.3,2.6,0.1,3.2l-2-0.3
			c0.1-0.5,0.1-1.4-0.1-2.3c-0.2-0.8-0.7-1.9-1.5-2.8c-0.2-0.2-0.3-0.3-0.4-0.4c-0.1-0.1-0.3-0.1-0.7-0.1l-12.7-0.8L3083.4,306.5z"
			/>
		<path fill="#AEA198" stroke="#998B82" stroke-width="1.1" stroke-miterlimit="10" d="M3106.2,290.7l-17.2-6l1.3-2l8.7,3.2
			c2.1,0.8,4.3,1.6,5.8,2.3l0,0c-1.3-1.2-2.7-2.8-4.3-4.6l-6.1-6.9l1.3-2l8.7,3.2c2.1,0.8,4,1.5,5.7,2.3l0,0
			c-1.4-1.4-2.7-2.8-4.3-4.6l-6.1-6.9l1.3-2l12,14.1l-1.3,2l-8.9-3.3c-2.2-0.8-3.8-1.4-5.5-2.2l0,0c1.3,1.2,2.5,2.5,4,4.4l6.2,7.3
			L3106.2,290.7z"/>
		<path fill="#AEA198" stroke="#998B82" stroke-width="1.1" stroke-miterlimit="10" d="M3112.8,270.9c2.5,1.9,4.7,1.1,6.1-0.7
			c1-1.3,1.4-2.3,1.6-3.2l1.5,0.8c-0.2,0.9-0.8,2.2-2,3.8c-2.4,3.1-5.9,3.3-8.9,0.9c-2.9-2.4-3.9-6-1.6-9.1c2.6-3.3,6.1-1.9,8.1-0.4
			c0.3,0.3,0.7,0.5,0.8,0.8L3112.8,270.9z M3115.6,264.7c-1.1-1-3.3-1.9-4.9,0.2c-1.4,1.9-0.4,3.9,0.8,5.1L3115.6,264.7z"/>
		<path fill="#AEA198" stroke="#998B82" stroke-width="1.1" stroke-miterlimit="10" d="M3124.6,265.8c-0.7-0.7-1.5-1.5-2.3-2.3
			L3111,253l1.5-1.6l5.9,5.4l0,0c-0.5-1.5-0.2-3.3,1.2-4.8c2.1-2.3,5.6-2.2,8.5,0.4c3.4,3.1,3.1,6.7,1.2,8.8c-1.2,1.3-2.7,2-4.6,1.5
			v0.1l1.4,1.5L3124.6,265.8z M3122.4,260.6c0.2,0.2,0.4,0.3,0.7,0.4c1.5,0.8,3.2,0.5,4.4-0.8c1.6-1.7,1.2-4.2-1-6.1
			c-1.9-1.7-4.4-2.2-6-0.4c-1.1,1.2-1.3,2.9-0.3,4.5c0.1,0.2,0.3,0.4,0.7,0.8L3122.4,260.6z"/>
		<path fill="#AEA198" stroke="#998B82" stroke-width="1.1" stroke-miterlimit="10" d="M3127.1,238c0.9-1.1,2.1-2.3,3.4-3.5
			c2.5-2.2,4.7-3.2,6.8-3.1c2.2,0,4.2,1,6.1,3.2c1.9,2.2,2.8,4.5,2.6,6.9c-0.1,2.3-1.6,4.8-4.2,7.2c-1.2,1.1-2.3,2-3.3,2.6
			L3127.1,238z M3139.2,248.3c0.5-0.3,1.2-0.9,1.9-1.4c3.6-3.3,3.8-7.1,0.7-10.7c-2.7-3.2-6.2-3.6-9.9-0.3c-0.9,0.8-1.5,1.4-1.9,2
			L3139.2,248.3z"/>
		<path fill="#AEA198" stroke="#998B82" stroke-width="1.1" stroke-miterlimit="10" d="M3149.2,234.3c2,2.4,4.3,2.3,6.1,0.9
			c1.3-1,2-1.9,2.4-2.6l1.3,1.1c-0.4,0.8-1.3,2-2.8,3.2c-3.1,2.4-6.6,1.7-8.9-1.3c-2.3-3.1-2.3-6.8,0.7-9.2c3.3-2.5,6.3-0.2,7.9,1.6
			c0.3,0.3,0.4,0.7,0.5,0.9L3149.2,234.3z M3153.7,228.8c-0.9-1.2-2.7-2.6-4.8-1.1c-1.9,1.4-1.4,3.7-0.5,5.1L3153.7,228.8z"/>
		<path fill="#AEA198" stroke="#998B82" stroke-width="1.1" stroke-miterlimit="10" d="M3155.9,221l6,4.6c1,0.8,1.9,1.4,2.6,2.2h0.1
			c-0.3-1-0.7-2.1-0.9-3.3l-1.9-7.4l2-1.3l2.8,13.4l-1.9,1.2l-11.1-8L3155.9,221z"/>
		<path fill="#AEA198" stroke="#998B82" stroke-width="1.1" stroke-miterlimit="10" d="M3170.5,219.6c1.6,2.6,3.9,2.7,6,1.6
			c1.4-0.9,2.2-1.5,2.7-2.3l1.2,1.2c-0.5,0.8-1.5,1.7-3.3,2.8c-3.4,2-6.7,0.9-8.7-2.4c-2-3.3-1.5-7.2,1.7-9.1
			c3.6-2.1,6.3,0.5,7.6,2.5c0.2,0.4,0.3,0.8,0.4,1L3170.5,219.6z M3175.5,214.7c-0.8-1.3-2.4-2.9-4.7-1.6c-2,1.2-1.9,3.5-1.2,5
			L3175.5,214.7z"/>
		<path fill="#AEA198" stroke="#998B82" stroke-width="1.1" stroke-miterlimit="10" d="M3175.1,202.4l2.1-1.1l8.6,16.7l-2.1,1.1
			L3175.1,202.4z"/>
		<path fill="#AEA198" stroke="#998B82" stroke-width="1.1" stroke-miterlimit="10" d="M3196.8,205.7c1.9,4.3-0.2,7.5-3.1,8.8
			c-3.2,1.4-6.6,0.2-8.3-3.5c-1.7-3.9-0.2-7.4,3.1-8.8C3191.8,200.6,3195.3,202,3196.8,205.7z M3187.6,209.9
			c1.1,2.5,3.5,3.8,5.5,2.8c2-0.9,2.7-3.5,1.5-6.1c-0.9-2-2.9-4-5.5-2.9C3186.6,204.7,3186.6,207.7,3187.6,209.9z"/>
		<path fill="#AEA198" stroke="#998B82" stroke-width="1.1" stroke-miterlimit="10" d="M3199,202.6c-0.5-1.5-1.1-2.7-1.5-3.8l2-0.8
			l0.9,2l0,0c0.3-1.7,1.4-3.2,3.4-3.8c2.8-1.1,5.9,0.5,7.4,4.2c1.5,4.3-0.2,7.4-3.1,8.5c-1.5,0.5-3.2,0.4-4.4-0.5l0,0l2.4,6.4
			l-2.2,0.8L3199,202.6z M3202.3,204.9c0.1,0.3,0.3,0.5,0.4,0.9c1,1.3,2.6,1.9,4.2,1.3c2.3-0.9,2.9-3.2,2-5.9
			c-0.9-2.4-2.8-3.9-5.1-3.2c-1.5,0.5-2.5,2.1-2.3,3.9c0,0.3,0.1,0.7,0.2,1L3202.3,204.9z"/>
		<path fill="#AEA198" stroke="#998B82" stroke-width="1.1" stroke-miterlimit="10" d="M3215.3,199.5c1,2.9,3.3,3.6,5.5,2.9
			c1.5-0.4,2.4-1.1,3.2-1.6l0.9,1.4c-0.7,0.5-1.9,1.4-3.8,2c-3.7,1.2-6.8-0.7-8-4.3c-1.1-3.6,0.1-7.3,3.7-8.4c3.9-1.2,6.1,2,6.8,4.2
			c0.1,0.4,0.2,0.8,0.2,1.1L3215.3,199.5z M3221.4,195.9c-0.4-1.4-1.6-3.4-4.2-2.6c-2.2,0.7-2.6,3.1-2.3,4.6L3221.4,195.9z"/>
		<path fill="#AEA198" stroke="#998B82" stroke-width="1.1" stroke-miterlimit="10" d="M3226.1,193.4c-0.4-1.4-0.8-2.7-1.1-3.8
			l2-0.5l0.8,2.4h0.1c0.1-1.7,1.2-3.2,2.7-3.6c0.2-0.1,0.4-0.1,0.7-0.1l0.5,2.1c-0.2,0-0.4,0-0.8,0.1c-1.5,0.4-2.4,1.9-2.2,3.6
			c0,0.3,0.1,0.7,0.2,1.1l1.7,6.6l-2.2,0.5L3226.1,193.4z"/>
	</g>
</g>
<path fill="#A31369" stroke="#A31369" stroke-width="5" stroke-miterlimit="10" d="M3089.9,214.4c0,0-4-41.2,14.9-87.4
	c10.3-25.2,22.8-38.9,28.1-44.3c0.8-0.8,1.3-1.3,1.7-1.7c4.1-4,24.5-23.4,48.8-31.5c5.1-1.7,43.9-14.6,74.4,7.7
	c4.3,3.2,22,17.1,25.7,39.9c2.4,14.6-1.8,28.1-3.5,33.9c-0.6,2.3-2.4,9.4-7.6,17.5c-13.3,20.9-28.6,34.1-27.4,35.5
	c1,1.1,10.1-8.5,22.9-7.6c7.1,0.4,10.4,3.7,11.1,4.4c2.2,2.3,4.6,6.7,3.1,9.9c-0.2,0.5-1.1,1.9-5.6,3.5c-6.8,2.4-12.2,2-12.2,2.4
	c0,0.4,9.6-0.6,18.2,3.4c6.1,2.9,10.1,7.4,12.8,11.4c-3-0.2-6.3-0.4-9.9-0.4c0,0-5.3-0.1-10.5,0.2c-42.7,1.9-79.1,20-79.1,20
	c-12,5.7-63.4,31.5-88.8,93.2c-2.6,6.3-25.1,63.2-3.3,127.7c5.9,17.7,14.8,43,39.9,64.4c27.1,23,57.3,27.6,69.9,28.8
	c-9.1-4.6-22.6-12.7-35.5-26.6c-10.5-11.4-17.1-22.7-21.2-31.1c-4.9-9.5-11.1-23-15.5-39.9c-2.3-8.8-9-37.1-4.4-73.2
	c2-16.2,8-58,39.9-96.6c8.7-10.5,53.7-64.7,106.7-56.5c10.8,1.7,19.3,5.5,24.8,8.6c0.2-1,3.1-21.3-10.5-31.6
	c-4.3-3.2-8.9-4.5-12.3-5.1c6.6-3.2,9.1-11.1,6.2-17.2c-3.1-6.5-11.7-9.2-18.4-5.3c-1.1,0.6-1.4,0.6-1.5,0.6
	c-3.2-2,43.1-51.1,38.7-102.3c-3.2-38.7-34.3-61.5-35.8-62.6c-30-20.9-63.7-14.3-74.1-12.1c-27.5,5.5-45.3,20.4-55.5,29.3
	c-0.6,0.5-24.1,22.5-37.7,52.8c-11.7,25.9-14.6,47.6-17.1,68.7C3088.5,162.4,3087.1,186.2,3089.9,214.4z"/>
</svg>
