<?xml version="1.0" encoding="utf-8"?>
<!-- Generator: Adobe Illustrator 18.1.1, SVG Export Plug-In . SVG Version: 6.00 Build 0)  -->
<svg version="1.1" xmlns="http://www.w3.org/2000/svg" xmlns:xlink="http://www.w3.org/1999/xlink" x="0px" y="0px"
	 viewBox="411.6 243.7 824.5 562.7" enable-background="new 411.6 243.7 824.5 562.7" xml:space="preserve">
<g id="Layer_1">
	<g>
		<g>
			<g>
				<path stroke="#000000" stroke-miterlimit="10" d="M751.9,652V306.4c-11.3,7-18.9,10.6-23.1,10.6l-1.5-0.9
					c-0.6-0.9-0.9-1.8-0.9-3.1c0-0.9,1.5-1.8,4.5-3.1c21.3-9.2,35-22.5,40.5-40.2c0.9-2.7,1.8-4.3,2.7-5.1c0.9-0.9,2.1-1.2,3.7-1.2
					h18.9c1.2,0,2.4,0.6,3.3,1.8c1.5,2.4,2.4,4.9,2.4,7.3v380h17c1.2,0,2.1,0.3,3.1,0.9c0.9,0.6,1.2,1.5,1.2,2.7
					c0,0.9-0.3,1.8-0.9,2.4c-0.9,0.9-1.8,1.2-3.1,1.2h-90.8l-1.8-0.9c-0.6-0.6-0.9-1.5-0.9-3.1c0-0.9,0.9-2.4,3.1-3.7L751.9,652
					L751.9,652L751.9,652z"/>
				<path stroke="#000000" stroke-miterlimit="10" d="M819.9,660.8h-91.1l-2.7-1.2c-0.9-0.9-1.5-2.4-1.5-3.9c0-1.5,1.2-3.1,3.7-4.9
					l0.3-0.3h21.9V309.1c-10.4,6.4-17.4,9.4-21.7,9.4h-0.3l-2.4-1.2l-0.3-0.3c-0.6-1.2-0.9-2.4-0.9-3.9c0-1.5,1.5-3.1,5.5-4.5
					c21-8.8,34.4-22.3,39.6-39.3c0.9-3.1,2.1-4.9,3.1-6.1c1.2-1.2,2.7-1.8,4.5-1.8h18.9c1.8,0,3.3,0.9,4.5,2.4
					c1.8,2.7,2.7,5.5,2.7,8.6v378.5h15.6c1.5,0,3.1,0.6,3.9,1.5c1.2,0.9,1.8,2.4,1.8,3.7c0,1.8-0.9,3.1-1.5,3.7
					C822.9,660.2,821.3,660.8,819.9,660.8z M729.4,657.8h90.4c0.9,0,1.5-0.3,2.1-0.9c0.3-0.3,0.6-0.6,0.6-1.2s-0.3-1.2-0.6-1.5
					c-0.6-0.3-1.2-0.6-2.1-0.6h-18.5V271.9c0-2.4-0.6-4.5-2.1-6.4c-0.6-0.6-1.5-1.2-2.1-1.2h-18.9c-0.9,0-1.8,0.3-2.4,0.9
					s-1.2,1.5-2.4,4.5c-5.8,18-19.8,31.9-41.4,41.1c-3.1,1.2-3.7,2.1-3.7,2.1c0,0.6,0.3,1.2,0.3,1.8l0.9,0.3
					c2.7-0.3,8.8-2.1,21.9-10.4l2.4-1.5v349.9h-24.1c-1.8,1.5-1.8,2.1-1.8,2.1c0,0.6,0,1.2,0.3,1.5L729.4,657.8z"/>
			</g>
		</g>
		<g>
			<g>
				<path stroke="#000000" stroke-miterlimit="10" d="M857.9,262.8h105.4v-10.4c1.5-1.8,2.7-2.7,3.9-2.7c0.9,0,2.1,0.9,3.3,2.7
					l-3.1,53c0,0.9-0.3,1.8-0.9,2.4c-0.6,0.6-1.8,0.9-3.1,0.9h-98.2l-3.3,116.9c9.2-18,17.4-30.1,24.7-36.2
					c7.6-6.1,16.4-9.2,26.8-9.2c19.8,0,35.4,11,46.6,32.9c11.3,21.9,17,59.7,17,113.3c0,46.9-5.1,80-15.2,99.3
					c-13.4,25-32.6,37.4-57.3,37.4c-15.8,0-29.5-6.7-40.8-20.4c-11.2-13.4-17-33.1-17-59.3c0-18,3.1-31.1,8.8-38.7
					c5.8-7.6,12.5-11.6,20.4-11.6c7.3,0,13.7,3.3,19.2,10.4c5.8,7,8.6,16.8,8.6,29.5c0,14-3.1,24.4-8.8,31.7s-12.8,10.6-20.1,10.6
					c-3.3,0-7-0.6-10.6-1.5l-2.4-0.3l-0.9,0.6c-0.6,0.6-0.9,1.5-0.9,3.1c0,9.8,3.9,18.2,12.2,26.2c7.9,7.9,17.4,11.9,28.3,11.9
					c7.6,0,13.4-2.4,17-7c5.1-6.4,7.9-14.9,7.9-25.9V420c0-12.2-1.8-21-5.8-26.5c-2.7-3.9-6.7-5.8-11.6-5.8c-9.8,0-19.2,6.1-28,18
					c-12.8,17.6-19.8,43.6-21.3,77.7c0,1.5-0.9,2.7-3.1,4.3c-0.9,0-1.5-0.3-2.1-0.9c-0.6-0.9-0.9-1.8-0.9-3.1L857.9,262.8z"/>
				<path stroke="#000000" stroke-miterlimit="10" d="M904.2,664.1c-16.2,0-30.5-7-42-20.7c-11.6-13.7-17.4-34.1-17.4-60.3
					c0-18.2,3.1-31.7,9.2-39.6c6.1-7.9,13.4-12.2,21.7-12.2c7.6,0,14.6,3.7,20.4,11c5.8,7.3,8.8,17.4,8.8,30.7
					c0,14.3-3.1,25.3-9.2,32.6c-6.1,7.6-13.4,11.3-21.3,11.3c-3.3,0-7.3-0.6-11-1.5l-1.8-0.3h-0.3c-0.3,0.3-0.3,0.9-0.3,1.8
					c0,9.2,3.9,17.6,11.6,25.3c7.6,7.6,16.8,11.3,27.1,11.3c7,0,12.5-2.1,16.2-6.4c5.1-6.1,7.6-14.3,7.6-25V419.6
					c0-11.9-1.8-20.4-5.5-25.6c-2.4-3.3-6.1-5.1-10.4-5.1c-9.4,0-18.2,5.8-26.8,17.4c-12.5,17.4-19.5,43.2-21,77.1
					c0,1.8-1.2,3.7-3.7,5.5l-0.3,0.3h-0.6c-1.2,0-2.4-0.6-3.3-1.5c-0.9-1.2-1.2-2.4-1.2-3.9l6.1-222h105.4v-9.4l0.3-0.3
					c3.3-4.3,6.7-4.5,9.8,0l0.3,0.3l-3.4,53.5c0,1.8-0.9,3.1-1.5,3.3c-0.9,0.6-2.4,1.2-3.9,1.2h-96.9L863.6,419
					c7.9-14.9,15.2-25.3,21.9-30.7c7.6-6.4,17-9.4,27.7-9.4c20.4,0,36.6,11.3,47.8,33.8c11.3,21.9,17,60.3,17,113.9
					c0,46.9-5.1,80.7-15.5,99.9C949,651,929.4,664.1,904.2,664.1z M875.6,534.4c-7.3,0-13.7,3.7-19.2,11s-8.6,20.1-8.6,37.8
					c0,25.6,5.5,45,16.4,58.5c11,13.1,24.4,19.8,39.6,19.8c24.1,0,42.6-12.2,55.7-36.6c10-18.9,15.2-52.1,15.2-98.4
					c0-53-5.8-91.1-16.8-112.7c-11-21.3-26.2-31.9-45-31.9c-10,0-18.6,3.1-25.9,8.8c-7.3,6.1-15.5,18-24.4,36l-3.1,6.1l3.3-125.2
					h99.9c1.2,0,1.8-0.3,2.1-0.6c0.3-0.3,0.3-0.3,0.3-1.2l3.1-52.7c-1.2-1.5-1.8-1.5-1.8-1.5c-0.6,0-1.5,0.6-2.4,1.5v11.3H858.8
					l-6.1,218.9c0,0.9,0.3,1.5,0.6,2.1c0.3,0.3,0.3,0.3,0.6,0.3c0.9-0.6,1.8-1.8,1.8-2.7c1.5-34.4,8.8-60.6,21.7-78.6
					c9.2-12.2,18.9-18.6,29.2-18.6c5.5,0,9.8,2.1,12.8,6.4c3.9,5.5,6.1,14.6,6.1,27.4v202.5c0,11.3-2.7,20.1-8.2,26.8
					c-4.3,4.9-10.4,7.3-18.2,7.3c-11.3,0-21-3.9-29.2-12.2c-8.2-8.2-12.5-17.4-12.5-27.4c0-1.5,0.3-2.7,1.2-3.9l0.3-0.3l1.8-0.9
					l2.7,0.3c3.7,0.9,7.3,1.5,10.4,1.5c7.3,0,13.4-3.3,19.2-10.4c5.8-7,8.6-17.4,8.6-30.7c0-12.5-2.7-21.9-8.2-28.6
					C887.8,536.8,882.5,534.4,875.6,534.4z"/>
			</g>
		</g>
		<g>
			<g>
				<path stroke="#000000" stroke-miterlimit="10" d="M996.5,532.9V392.2c0-50.3,7.9-86.2,23.5-108.7c11-15.8,25.3-23.7,43-23.7
					c21.9,0,39,11.9,50.5,35.6c11.6,23.7,17.4,56.9,17.4,99.3V533c0,48.1-7.9,83.1-23.7,105.6c-11.6,16.2-26.2,24.1-43.8,24.1
					c-10,0-18.9-2.4-26.5-7.6c-7.6-5.1-14.3-12.5-19.8-22.3c-3.7-5.8-7-15.2-10.6-28.3C999.8,582.2,996.5,558.1,996.5,532.9z
					 M1078.1,284.4c0-5.1-1.8-10-5.8-14.6c-2.4-3.1-5.8-4.5-10.4-4.5c-3.9,0-7.3,1.5-9.8,4.5c-2.4,3.1-3.7,7.9-3.7,14.6v342.9
					c0,11.9,1.2,19.5,3.9,23.1c2.7,3.7,6.7,5.5,11.6,5.5c4.5,0,7.9-1.5,9.8-4.5c2.7-3.9,4.3-12.2,4.3-24.4L1078.1,284.4
					L1078.1,284.4z"/>
				<path stroke="#000000" stroke-miterlimit="10" d="M1062.8,664.1c-10.4,0-19.5-2.7-27.4-7.9c-7.6-5.1-14.6-12.8-20.4-22.5
					c-3.7-5.8-7.3-15.5-10.6-28.6c-6.4-22.3-9.4-46.6-9.4-72.2V392.2c0-50.3,7.9-87.1,23.7-109.6c11.3-16.2,26.2-24.4,44.2-24.4
					c22.5,0,39.9,12.2,51.8,36.6c11.6,23.7,17.4,57.5,17.4,100.2v138.3c0,48.1-8.2,84.1-24.1,106.6
					C1096.3,655.7,1081.1,664.1,1062.8,664.1z M1062.8,261.2c-16.8,0-30.7,7.9-41.7,23.1c-15.5,21.9-23.1,58.1-23.1,107.8v140.7
					c0,25.3,3.1,49.3,9.4,71.2c3.3,12.8,7,22.3,10.4,27.7c5.5,9.4,12.2,16.8,19.5,21.7c7.3,4.9,15.8,7.3,25.6,7.3
					c17.4,0,31.7-7.9,42.6-23.5c15.5-22.3,23.5-57.3,23.5-104.8V394.4c0-42-5.8-75.3-17-98.6
					C1100.9,272.9,1084.2,261.2,1062.8,261.2z M1064,657.8c-5.5,0-9.8-2.1-12.8-6.1c-3-3.9-4.3-11.9-4.3-24.1V284.4
					c0-7,1.2-12.2,3.9-15.5c2.7-3.3,6.4-5.1,11-5.1c4.9,0,8.8,1.8,11.6,5.1c3.9,4.5,6.1,9.8,6.1,15.5v342.9
					c0,12.5-1.5,20.7-4.5,25.3C1072.9,655.9,1069.3,657.8,1064,657.8z M1061.9,267.1c-3.7,0-6.4,1.2-8.6,3.9s-3.3,7.3-3.3,13.4
					v342.9c0,11.3,1.2,18.9,3.7,22.3c2.4,3.3,5.8,4.9,10.4,4.9c3.9,0,7-1.2,8.6-3.7c2.7-3.9,3.9-11.6,3.9-23.5V284.4
					c0-4.9-1.8-9.4-5.5-13.4C1068.9,268.3,1065.9,267.1,1061.9,267.1z"/>
			</g>
		</g>
	</g>
	<g>
		<path stroke="#FFFFFF" stroke-width="3" stroke-miterlimit="10" d="M1161.5,654.4V620l14-6.4l-14-5.8v-15.5l14-6.1l-14-6.7v-34.7
			l65.5,28.9v18.6l-18,7.6l18,7.9v18.6L1161.5,654.4z"/>
		<path stroke="#FFFFFF" stroke-width="3" stroke-miterlimit="10" d="M1156.9,661.4v-44.2l7.3-3.3l-7.3-3.1v-21.7l7.6-3.3l-7.6-3.7
			v-44.8l74.6,32.9v24.7l-11,4.9l11,4.9v24.7L1156.9,661.4z M1166.1,623v24.7l56.3-24.1v-12.8l-24.7-11l24.7-10.6v-12.8l-56.3-25v25
			l20.4,9.8l-20.4,9.2v9.4l20.7,8.8L1166.1,623z"/>
	</g>
	<g>
		<path stroke="#FFFFFF" stroke-width="3" stroke-miterlimit="10" d="M1227.6,516.2c0,10.4-3.1,18.9-9.4,25.6
			c-6.1,6.7-14.3,10-24.4,10c-10.1,0-18.2-3.3-24.4-10c-6.4-6.7-9.4-15.2-9.4-25.6c0-10.6,3.1-19.2,9.4-25.9
			c6.4-6.7,14.3-10,24.4-10c10.1,0,18,3.3,24.4,10C1224.6,497,1227.6,505.5,1227.6,516.2z M1185.9,516.2c0,2.1,0.6,3.9,2.1,5.1
			c1.5,1.2,3.1,2.1,5.5,2.1c2.1,0,3.9-0.6,5.5-2.1c1.5-1.2,2.1-3.1,2.1-5.1c0-2.1-0.6-3.9-2.1-5.5c-1.5-1.5-3.1-2.1-5.5-2.1
			c-2.1,0-3.9,0.6-5.5,2.1C1186.5,512.3,1185.9,513.7,1185.9,516.2z"/>
		<path stroke="#FFFFFF" stroke-width="3" stroke-miterlimit="10" d="M1194.1,556.3c-11.3,0-20.7-3.9-27.7-11.3
			c-7-7.6-10.6-17-10.6-28.9s3.7-21.7,10.6-28.9c7.3-7.6,16.4-11.3,27.7-11.3c11.3,0,20.7,3.9,27.7,11.3c7,7.6,10.6,17.4,10.6,28.9
			c0,11.6-3.7,21-10.6,28.6C1214.5,552.4,1205.4,556.3,1194.1,556.3z M1194.1,484.8c-8.8,0-15.8,2.7-21.3,8.6
			c-5.5,5.8-8.2,13.1-8.2,22.9c0,9.4,2.7,16.8,8.2,22.5c5.5,5.8,12.5,8.6,21.3,8.6s15.5-2.7,21-8.6c5.5-5.8,8.2-13.1,8.2-22.5
			c0-9.4-2.7-17-8.2-22.9C1209.6,487.5,1202.6,484.8,1194.1,484.8z M1193.1,528c-3.3,0-6.4-1.2-8.6-3.3c-2.1-2.1-3.3-5.1-3.3-8.6
			c0-3.3,1.2-6.4,3.3-8.6c2.1-2.1,5.1-3.3,8.6-3.3s6.4,1.2,8.6,3.3c2.1,2.1,3.3,5.1,3.3,8.6c0,3.3-1.2,6.4-3.3,8.6
			C1199.6,526.8,1196.8,528,1193.1,528z M1193.1,513.1c-1.2,0-1.8,0.3-2.1,0.6c-0.3,0.3-0.6,0.9-0.6,2.1c0,1.2,0.3,1.8,0.6,2.1
			c0.3,0.3,0.9,0.6,2.1,0.6s1.8-0.3,2.1-0.6c0.3-0.3,0.6-0.9,0.6-2.1c0-1.2-0.3-1.8-0.6-2.1C1195,513.7,1194.7,513.1,1193.1,513.1z"
			/>
	</g>
	<g>
		<path stroke="#FFFFFF" stroke-width="3" stroke-miterlimit="10" d="M1175.8,436.1c-10-4.3-14.9-10.4-14.9-18.6
			c0-4.5,1.5-8.2,4.5-11.3c3.1-3.1,6.7-4.3,11.3-4.3c4.9,0,8.6,1.5,11.6,4.3c3.1,2.7,4.5,6.7,4.5,11.3c0,5.1-2.1,9.8-6.1,13.7
			c2.7,3.3,8.2,4.9,15.8,4.9h24.4v33.5h-65.5v-33.5H1175.8z"/>
		<path stroke="#FFFFFF" stroke-width="3" stroke-miterlimit="10" d="M1231.2,474.4h-74.3v-42.6h4.5c-3.9-4.9-5.1-9.8-5.1-14
			c0-5.8,1.8-10.6,5.8-14.3c3.9-3.7,8.8-5.8,14.6-5.8c6.1,0,11,1.8,14.9,5.5s5.8,8.6,5.8,14.6c0,4.5-1.2,8.8-3.9,12.8
			c2.1,0.9,5.1,1.2,9.2,1.2h28.9v42.7H1231.2z M1166.1,465.3h56.3v-24.4h-19.8c-1.8,0-3.7,0-5.1-0.3l0.6,0.3h-31.9L1166.1,465.3
			L1166.1,465.3z M1176.7,406.5c-3.3,0-6.1,0.9-8.2,3.1c-2.1,2.1-3.1,4.5-3.1,7.9c0,2.1,0,9.2,12.2,14.3l6.1,2.4l-0.3-0.3l-2.7-3.3
			l3.1-3.1c3.1-2.7,4.5-6.1,4.5-10.4c0-3.3-0.9-6.1-3.1-7.9C1182.8,407.7,1180,406.5,1176.7,406.5z"/>
	</g>
	<g>
		<path stroke="#FFFFFF" stroke-width="3" stroke-miterlimit="10" d="M1143.8,322.5h82.8v39.9c0,12.2-3.1,21.7-9.4,28.3
			c-6.4,6.7-14.3,10-23.7,10s-17-3.1-23.5-9.2c-6.1-6.1-9.4-13.7-9.4-22.9c0-5.1,0.9-9.2,2.4-12.8h-19.2V322.5L1143.8,322.5z
			 M1202.9,356h-14.6c-1.2,1.5-1.5,3.7-1.5,5.8s0.9,3.7,2.4,4.9c1.5,1.2,3.7,1.8,6.1,1.8c2.7,0,4.9-0.9,6.1-2.4
			c1.2-1.5,1.8-3.9,1.8-7.6v-2.4L1202.9,356L1202.9,356z"/>
		<path stroke="#FFFFFF" stroke-width="3" stroke-miterlimit="10" d="M1193.5,405.3c-10.4,0-19.5-3.7-26.5-10.6
			c-7-7-10.6-15.8-10.6-26.2c0-3.1,0.3-5.5,0.6-8.2h-17.6v-42.6h91.9v44.4c0,13.4-3.7,24.1-10.6,31.3
			C1213.6,401.4,1204.4,405.3,1193.5,405.3z M1148.4,351.4h21.9l-3.1,6.4c-1.2,2.7-1.8,6.4-1.8,10.6c0,7.9,2.7,14.3,7.9,19.8
			c5.5,5.1,11.9,7.9,20.1,7.9s14.9-2.7,20.4-8.6c5.5-5.8,8.2-14.3,8.2-25.3v-35.4h-73.7L1148.4,351.4L1148.4,351.4z M1195,373
			c-3.3,0-6.4-0.9-8.8-3.1c-2.7-2.1-3.9-5.1-3.9-8.6c0-3.1,0.9-5.8,2.4-8.2l1.2-2.1h21.7v7.3c0,4.5-0.9,7.9-3.1,10.4
			C1203.2,370.9,1200.2,373,1195,373z M1191.3,360.5c0,0.3,0,0.6,0,1.2c0,0.6,0,0.9,0.6,1.5s1.8,0.9,3.1,0.9c0.6,0,2.1,0,2.4-0.6
			c0.3-0.3,0.6-0.9,0.9-2.7h-7V360.5z"/>
	</g>
	<g>
		<path stroke="#FFFFFF" stroke-width="3" stroke-miterlimit="10" d="M1220.3,315.5l-18.2-7.6c3.1-2.4,5.5-5.1,7.3-8.2
			c1.8-3.3,2.7-6.4,2.7-9.8c0-1.8-0.3-3.7-1.2-4.5c-0.9-1.2-2.1-1.8-3.3-1.8s-2.4,0.6-3.3,1.5c-0.9,0.9-2.1,3.7-3.3,7.9
			c-1.2,4.3-2.4,7.9-3.9,10.6s-3.7,5.1-6.4,7c-2.7,1.8-6.1,2.7-9.4,2.7c-6.4,0-11.6-2.7-15.2-8.6c-3.7-5.5-5.5-13.4-5.5-23.5
			c0-11.3,1.8-21,5.5-29.2l16.8,7.9c-4.9,5.1-7,10.4-7,15.2c0,1.5,0.3,3.1,1.2,3.9c0.6,0.9,1.5,1.5,2.7,1.5s2.4-0.6,3.3-1.5
			c0.9-0.9,2.1-3.7,3.1-8.2c1.2-4.5,2.4-8.2,3.9-11.3c1.5-3.1,3.7-5.1,6.4-7c3.1-1.8,6.1-2.7,10-2.7c6.7,0,12.2,2.7,15.8,8.2
			c3.9,5.5,5.8,12.5,5.8,21C1227.6,291.1,1225.2,303.3,1220.3,315.5z"/>
		<path stroke="#FFFFFF" stroke-width="3" stroke-miterlimit="10" d="M1223,321.3l-26.2-10.6c-1.2,1.2-2.7,2.4-4.3,3.3
			c-3.7,2.4-7.6,3.3-11.9,3.3c-7.9,0-14.6-3.7-18.9-10.4c-3.9-6.4-6.1-14.9-6.1-25.9c0-11.9,2.1-22.5,6.1-31.1l1.8-4.3l22.5,11
			c1.8-3.3,4.3-5.8,7.6-7.9c3.7-2.1,7.6-3.3,12.2-3.3c8.2,0,14.9,3.3,19.8,10c4.5,6.1,6.7,14.3,6.7,23.7c0,12.2-2.4,25-7.6,37.8
			L1223,321.3z M1210.3,306.4l7.6,3.1c3.7-10,5.5-20.1,5.5-29.9c0-7.6-1.8-14-4.9-18.6c-3.1-4.3-7-6.4-12.2-6.4
			c-3.1,0-5.5,0.6-7.6,1.8c-2.1,1.2-3.7,3.1-4.9,5.1c-1.2,2.7-2.4,6.1-3.7,10.4c-1.8,7-3.1,9.2-4.3,10.4c-1.8,1.8-4.3,3.1-6.7,3.1
			c-2.7,0-4.9-1.2-6.4-3.3c-1.2-1.8-1.8-3.9-1.8-6.7c0-4.5,1.5-9.2,4.5-13.7l-7.3-3.3c-2.1,6.7-3.3,14.3-3.3,22.9
			c0,9.2,1.5,16.2,4.5,21c2.7,4.3,6.4,6.4,11.3,6.4c2.4,0,4.9-0.6,7-2.1s3.9-3.1,4.9-5.1c1.2-2.4,2.4-5.8,3.7-9.8
			c1.5-5.1,2.7-8.2,4.5-9.8c1.8-1.8,4.3-2.7,6.7-2.7c2.7,0,5.1,1.2,7,3.7c1.5,1.8,2.1,4.5,2.1,7.3c0,3.9-1.2,7.9-3.1,11.9
			C1212.3,303.3,1211.5,304.8,1210.3,306.4z M1207.2,288.1L1207.2,288.1c0,0-0.9,1.2-2.1,6.1c-0.9,2.7-1.5,5.1-2.4,7.3
			c1.2-1.2,2.1-2.7,3.1-4.3c1.5-2.4,2.1-5.1,2.1-7.3C1207.5,289.3,1207.2,288.7,1207.2,288.1z M1181.6,268.9
			c-0.9,2.1-1.5,3.9-1.8,5.8c0.3-0.9,0.9-2.4,1.5-4.9C1181.3,269.5,1181.3,269.2,1181.6,268.9z"/>
	</g>
	<path fill="#00FF00" stroke="#000000" stroke-miterlimit="10" d="M418.2,367.8l295.4-116.3V337L533,403.7L713.5,470v85.7
		L418.2,439.4V367.8z"/>
	<path fill="#FFFFFF" stroke="#000000" stroke-miterlimit="10" d="M718.2,563L413.6,443.4v-78.3l304.5-119.7v95.6l-172.1,63.6
		l172.1,63.4V563z M422.7,437l286.2,112.7v-75.9L519.8,404l189.1-70v-75.9L422.7,370.9V437z"/>
	<g>
		<rect x="418.2" y="571" fill="#00FF00" stroke="#000000" stroke-miterlimit="10" width="295.4" height="85.3"/>
		<path fill="#FFFFFF" stroke="#000000" stroke-miterlimit="10" d="M718.2,660.8H413.6v-94.4h304.5V660.8z M422.7,651.6h286.2v-76.1
			H422.7V651.6z"/>
	</g>
</g>
<g id="statement">
	<line fill="none" stroke="#060706" stroke-width="8" stroke-miterlimit="10" x1="1236" y1="715" x2="411.6" y2="715"/>
	<text transform="matrix(1 0 0 1 418.1733 774.1094)" font-family="'Futura-Medium'" font-size="46.2315">A blog. Any topic. 150 Words or Less.</text>
	<line fill="none" stroke="#060706" stroke-width="8" stroke-miterlimit="10" x1="1236" y1="802.4" x2="411.6" y2="802.4"/>
</g>
</svg>
