<?xml version="1.0" encoding="utf-8"?>
<!-- Generator: Adobe Illustrator 18.1.1, SVG Export Plug-In . SVG Version: 6.00 Build 0)  -->
<svg version="1.1" id="Layer_1" xmlns="http://www.w3.org/2000/svg" xmlns:xlink="http://www.w3.org/1999/xlink" x="0px" y="0px"
	 viewBox="224.5 3.6 667 548.2" enable-background="new 224.5 3.6 667 548.2" xml:space="preserve">
<path stroke="#000000" stroke-width="1.4" stroke-miterlimit="10" d="M757.2,434.3c-2.2,4.5-4.5,10-7.4,14.9
	c-9.3,15.3-20.3,18.1-38,16.3c-16.9-1.8-30.1-8.1-40-21.4c-29.4,21.5-50.2,22.6-77.3,4.3c-10.6,13.1-22.4,24.6-41.1,24.6
	c-19.7,0.2-30.5-11.1-35.4-26.9c-12.6,8.6-23.7,18.3-36.6,24.2c-15.6,7.4-32.1,5.6-46.7-5c-12.6-9.2-15.4-22.8-14.7-36.8
	c1.8-35,11.8-67.3,39.8-90.6c9.3-7.7,21-14,32.7-17.6c17-5.4,29.2,5.6,39.8,17.6c1.8,2,2.5,5.4,4.5,6.6c13.3,7.2,10.8,18.5,7.7,29.6
	c-3.9,14.4-9,28.5-13.1,42.7c-6.1,20.3,1.8,23.9,19.7,19.6c6.5-1.6,14.5-7,17-12.7c8.8-20.5,15.8-41.8,22.6-63
	c3.6-10.9,5.6-22.4,8.6-34.8c-7-0.7-12.7-1.4-18.7-1.8c-7.2-0.5-11.8-6.3-11.5-16c0.4-5.9,0.7-13.3,10-12.7c5.6,0.2,11.3,0,16.9,0.5
	c5.9,0.4,9.7-0.4,11.5-7.7c2.3-9.5,6.5-18.5,10.6-27.5c1.6-3.6,4.7-7,7.9-9.2c2.3-1.6,7.2-2,9.3-0.5s3.6,6.1,3.1,9
	c-1.8,11.1-4.5,21.9-7.2,33.9c17,0,32.5,0.2,47.7-0.2c1.4,0,3.6-3.4,4.1-5.7c2.7-10.8,4.7-21.5,7.5-32.3c1.3-4.3,3.6-9,6.8-12
	c2.2-2.2,7.5-3.8,9.5-2.5c2.3,1.4,4.1,6.8,3.4,9.5c-1.6,5.9-3.4,11.1,0.2,17c1.1,1.6-0.5,5-1.3,7.5c-1.3,5-2.7,10-4.3,16.5
	c6.3-0.4,11.1-0.2,15.6-1.3c5.7-1.4,8.8,0.5,9.7,5.9c1.1,5.9,2.3,11.8,2.2,17.6c-0.2,2.5-3.4,5.7-5.9,7c-3.4,1.4-7.5,1.3-11.3,1.6
	c-20.1,1.8-15.3,1.4-18.1,19.4c-3.4,22.4-7.2,44.9-9.9,67.3c-0.7,5.4,0.4,14.2,3.6,15.8c5.7,3.2,15.3,5,20.5,2.3
	c8.3-4.3,15.1-12.4,21-19.9c13.1-16.7,21-36.2,23.9-57.1c1.3-9.2-1.1-18.8-2.5-28.2c-1.4-10.2,3.2-18.5,11.8-19.4
	c13.6-1.4,21.2,3.8,20.1,16c-1.8,21-4.5,42.2-7.7,63c-2.5,15.4,3.6,33.7,15.1,37.5c5.2,1.8,11.1,1.8,16.7,1.4
	c31.2-1.4,50.6-16,57.4-43.1c0.9-3.8-0.7-8.3,0.4-12.2c1.1-4.5,3.8-8.6,5.7-12.9c3.1,3.2,6.5,6.1,9,9.7c2.3,3.4,3.9,7.4,5.4,11.1
	c7.5,19,0.7,35.4-10.2,50.8c-9.3,13.3-21.4,22.6-36.8,26.7c-18.5,5-36.8,3.6-54.4-3.6C776.4,444.2,767,439.2,757.2,434.3z
	 M674.1,327.9c-15.6,0-29.8-0.2-44,0.4c-1.6,0-3.9,4.1-4.3,6.5c-2,11.5-3.2,23-5.4,34.5c-3.2,16.9-7,33.7-10.2,50.6
	c-1.4,7.5,2.9,10.9,9.7,12.2c10.2,1.8,19.4-2.7,26-16.2c6.1-12.4,10.8-25.8,14.9-39.1C665.6,361.3,669.4,345.5,674.1,327.9z
	 M463.8,432c21.9-0.5,43.2-18.5,47.6-39.7c0.9-4.3,2.2-8.6,3.4-12.9c3.9-13.8-1.1-19.6-15.6-17.2c-4.5,0.7-9.7,2.3-12.9,5.6
	c-10,10-19.9,20.5-28.4,31.8c-4.1,5.4-5.9,13.1-6.8,19.9C450,428.7,454.3,432.2,463.8,432z"/>
<path stroke="#000000" stroke-width="0.98" stroke-miterlimit="10" d="M327.1,18.3c5.8,6.8,3,72.6,3,72.6
	c84.3-34.1,215.3-3,259.7,50.4C655.3,50.8,445.4-29.4,327.1,18.3z"/>
<rect x="340.3" y="40.8" transform="matrix(-0.9924 0.1229 -0.1229 -0.9924 746.8725 502.7609)" fill="#F7AF0F" stroke="#F7B614" stroke-width="0.98" stroke-miterlimit="10" width="35.2" height="467.3"/>
<path fill="#DB3B16" stroke="#DB3B16" stroke-width="0.98" stroke-miterlimit="10" d="M346.4,40.4l-35,4.3l-2.8-22.4
	c-0.5-3.4,2.3-6.6,5.7-7l22.4-2.8c3.4-0.5,6.3,2.1,6.7,5.5L346.4,40.4z"/>
<rect x="312.2" y="43.4" transform="matrix(-0.9924 0.1229 -0.1229 -0.9924 664.5644 62.1649)" fill="#BABABF" stroke="#CCCCCC" stroke-width="0.98" stroke-miterlimit="10" width="36.4" height="16.3"/>
<polygon fill="#FFFFCC" stroke="#FFFFCC" stroke-width="0.98" stroke-miterlimit="10" points="391.8,549.7 391.8,549.7 368.9,508.5
	403.9,504.2 "/>
<polygon stroke="#000000" stroke-width="0.98" stroke-miterlimit="10" points="391.9,550.4 391.9,550.4 380.6,530.1 397.9,528 "/>
<path fill="#FFFFCC" stroke="#FFFFCC" stroke-width="0.49" stroke-miterlimit="10" d="M368.3,508.9c0.8,0.3,1.1-0.6,1.4-1.4
	c0.5-1.5,1.3-2.9,2-4.1c0.4-0.6,1-1.2,1.8-1.4c1,0,1.6,1.1,1.7,2.2c0.1,1,0.1,2,0.7,2.9c0.9,1.3,3,1,4.3,0.2
	c1.3-0.9,1.9-2.5,2.7-3.9c0.3-0.5,0.5-0.9,0.9-1.2c0.6-0.5,1.4-0.7,2.1-1c0.4-0.1,0.8-0.1,1.1-0.1c0.9,0.3,1.2,1.3,1.9,2
	c0.5,0.8,1.4,1.3,2.2,1.4c0.3,0,0.5,0,0.8-0.1c0.1-0.1,0.1-0.3,0.3-0.4c0.3-0.8,0.4-1.5,0.4-2.3c0-0.5-0.1-1,0-1.5
	c0.1-0.5,0.6-1,1.1-1.4c0.8-0.6,1.6-1.4,2.8-1.2c0.8,0.1,1.4,0.6,1.9,1.4c0.4,0.6,0.7,1.4,1.1,2c0.5,0.8,1.1,1.4,1.7,2
	c0.2,0.3,0.4,0.4,0.6,0.5c0.6,0.4,1.5,0.1,2.3,0c0.1,0.3,0.2,0.5,0.4,0.8"/>
<path stroke="#000000" stroke-width="0.98" stroke-miterlimit="10" d="M589.9,141.3c-33.4,46.2-138.8,95-364.8,130.8l2.9,72.6
	C581,288.8,639.6,201,589.9,141.3z"/>
<polyline stroke="#000000" stroke-width="0.98" stroke-miterlimit="10" points="601.3,97.4 605,173.2 589.9,141.3 "/>
<g>
	<path fill="#0000FF" stroke="#0000FF" stroke-width="0.32" stroke-miterlimit="10" d="M778.5,280.3c-0.4,0-0.8,0-1.2,0
		c-0.4,0-1-0.2-1.4-0.2c-2.1-0.2-4.1-0.2-5.9-0.6c-5.7-1-11.1-2.7-16.4-5.3c-10.5-5.5-18.3-13.7-23.2-24.4
		c-3.1-6.4-4.5-13.1-4.7-20.1c0-0.4-0.2-0.8-0.2-1.2c0-0.4,0-0.8,0-1.2c0-0.4,0.2-0.8,0.2-1.2c0.2-6.2,1.4-12.1,3.7-17.8
		c3.3-8.2,8.4-15.2,15.2-20.7c9.2-7.4,19.7-11.5,31.6-11.9c0.4,0,0.8-0.2,1.2-0.2c0.4,0,0.8,0,1.2,0c0.4,0,1,0.2,1.4,0.2
		c2.1,0.2,3.9,0.2,5.9,0.6c6.6,1,12.7,3.3,18.5,6.6c10.3,5.9,17.4,14.4,22.1,25.2c2.5,5.7,3.7,11.9,3.9,18c0,0.4,0.2,0.8,0.2,1.2
		c0,0.4,0,0.8,0,1.2c0,0.4-0.2,0.8-0.2,1.2c-0.4,3.3-0.6,6.8-1.4,10c-2.7,11.7-8.6,21.3-18,28.7c-9,7.4-19.5,11.3-31,11.7
		C779.3,280.1,778.9,280.3,778.5,280.3z M809.3,240.5c0.8-1.4,0.2-2.5-0.6-3.5c-0.2-0.2-0.4-0.6-0.6-0.8c-0.4-0.6-0.8-1-1.6-0.8
		c-1.4,0.2-2.7-0.2-3.9-1c-0.6-0.4-1.4-0.8-2.1-1c-0.4-0.2-1-0.2-1.6-0.2c-0.8,0-1.8,0.2-2.7,0c-0.8,0-1.8,0-2.7-0.4
		c-0.6-0.2-1-0.4-1.4,0c-1,0.8-1.8,1.8-2.9,2.7c-0.4,0.4-0.6,0.6-1,0.4c-0.8-0.4-1.8-0.4-2.7,0c-0.8,0.6-2.5-0.6-2.5-1.6
		c0-0.8,0-1.4,0-2.3c0-1.4-0.6-1.8-2.1-1.6c-0.8,0-1.6,0-2.7,0c0.4-1.6,1-3.3,1.4-4.9c-1.8-0.4-2.3-0.2-3.3,1.2
		c-0.2,0.4-0.6,1-1,1.2c-0.8,0.2-1.8,0.4-2.7,0.2c-0.4,0-0.8-0.8-1.2-1.2c-0.4-0.4-0.6-1-0.8-1.4c-0.2-0.2-0.4-0.6-0.2-1
		c0.2-1.4,0.6-2.7,0.8-4.1c0.2-1,1.8-1.8,2.9-1.6c1,0.2,2.1,0.4,3.1,0.4c-0.2-1.2,0.4-1.4,1.4-1.2c0.6,0,1,0.2,1.6,0.2
		c1,0,1.4,0.6,2.1,1.6c0.4,0.8,1.2,1.4,1.8,2.3c0.2,0,0.2-0.2,0.4-0.2c0-0.4,0.2-0.8,0.2-1.2c-0.2-1-0.4-1.8-0.8-2.7
		c-0.6-1-0.2-1.8,0.4-2.5c0.6-0.6,1.4-1.4,2.1-2.3c0.2-0.2,0.4-0.6,0.4-0.8c-0.6-1,0-1.6,0.4-2.5c0.4-0.8,0.6-1.6,1.4-2.3
		c0.2-0.2,0.4-0.6,0.4-0.8c-0.2-1.4,1-1.8,1.8-2.7c0.2,0.4,0.4,0.8,0.6,1.2c0.6-0.8,1.2-1.4,1.8-2.1c-1.2-0.2-1.8-0.6-2.5-1.4
		c-0.4-1-1.2-1.2-2.1-0.4c-0.4,0.4-0.8,0.8-1,1c0.4-1.4,1.2-2.5,2.9-2.5c0.2,0,0.6-0.2,0.8-0.2c1-0.2,1.6-1,1.6-1.8
		c0.2-0.8-0.6-1.2-1.4-1.6c-1.2-0.4-2.5-0.8-3.3-1.8c-0.6-0.6-1.4-1-2.1-1.4c-0.2,0.2-0.2,0.2-0.2,0.2c-0.2,0.4-0.4,0.8-0.6,1
		c-0.4-0.2-0.8-0.4-1-0.6c-0.8-1-1.8-1.2-3.1-1.2c-0.8,0-1,0.2-1.2,1.2c0,0.8,0.2,1.6,1,2.1c0.4,0.4,0.8,1,0.4,1.4
		c-0.8,0.6-0.4,1.2-0.2,2.1c0.2,0.4,0.2,0.6,0.4,1c-1.2,0.4-1.6-0.2-1.8-1c-0.2-1.2-0.8-1.6-2.1-1.8c-1-0.2-1.8-0.4-2.9-0.6
		c-1.2-0.4-2.1-1.8-1.6-2.7c0.8-1.4,2.1-2.7,3.5-3.5c0.2-0.2,0.4-0.6,0.6-1s0-0.8-0.6-1c-0.2,0-0.4-0.2-0.6-0.4
		c-0.8-0.8-1.4-2.1-2.7-1.8c-0.6,0-1.4,0-1.8,0.4c-0.4,0.4-0.4,1.2,0.2,1.8c0,0.2-0.2,0.6-0.4,0.8c-0.4,0-0.8,0.2-1.2,0
		c-0.8-0.4-1.4-0.4-1.8,0.4c-0.4-0.2-1-0.2-1.4-0.4c-0.2,0-0.4,0-0.6-0.2c-1.4-1.4-3.3-2.1-5.3-1.8c-0.2,0-0.6-0.2-1-0.4
		c-0.6-0.6-1.2-1.4-2.1-2.1c-1-0.8-3.1-0.2-3.7,0.8c-0.2,0.2-0.6,0.4-1,0.4c-0.2,0-0.6-0.2-1-0.2c0,0.4,0,0.8,0,1
		c-0.2,0.2-0.4,0.6-0.6,0.6c-1.4-0.4-2.1,0.2-2.5,1.4c0,0.2-0.4,0.4-0.4,0.6c-0.2,0.4-0.2,0.8-0.4,1.2c-0.8,0.2-2.1,0.6-3.5,1
		c0.4,0.2,0.6,0.4,0.8,0.4c1.4-0.2,2.9-0.4,4.3-0.8c0.8-0.2,1-0.8,2.3-0.4c1.2,0.4,2.1,1,2.5,1.8c0.6,1,1,2.7,1,3.9
		c0,1.8,0,3.5,1.2,4.9c0,0,0,0.2,0,0.4c-0.2,0-0.6-0.2-1-0.2c-0.6,1.2-1,2.7-1.6,3.9c-1.2,2.7-0.8,5.3,0.6,7.6
		c1,1.4,1.6,2.9,2.1,4.3c0.2,0.8,0.2,1.6,0.6,2.3c0.4,1,1,1.8,1.4,2.9c0.2,0.4,0.8,0.8,1.2,1l0.2-0.2c-0.8-2.5-1.8-4.7-2.7-7.2
		c0.2,0,0.2,0,0.4-0.2c0.2,0.4,0.2,0.6,0.4,1c0.2,0.6,0.4,1.2,0.8,1.8c1.2,1.8,2.5,3.5,3.7,5.3c0.2,0.4,0.4,1,0.4,1.6
		c0,0.8,0.2,1.2,0.8,1.6c1.8,1,3.5,1.8,5.1,3.1c0.8,0.4,1.6,0.6,2.5,0.2c0.6-0.4,1.2-0.2,1.6,0.4c1,1,2.1,1.6,3.5,1.8
		c1.2,0,2.5,0.8,3.1,1.8c0.8,1.4,2.1,1.8,3.3,2.5c1.6,0.8,1.6,0.8,2.9-0.8c0.4,0.2,0.8,0.6,1,0.8c1,1.6,0.8,3.3-0.4,4.7
		c-0.4,0.4-0.6,0.6-0.8,1c-0.6,1-1.4,2.3-0.6,3.7c0,0.2,0,0.6-0.2,0.6c-0.8,1-1,1.8,0.2,2.9c1.4,1.2,2.5,2.9,3.1,4.7
		c0.2,0.6,0.6,1,1.2,1.2c1,0.6,2.3,1.2,3.5,1.8c-0.4,1.6-0.6,3.5-1.4,4.9c-1,2.3-2.1,4.7-3.9,6.6c-0.4,0.4-0.8,1-1,1.6
		c0,0.8-0.6,1.2-1,1.8c-0.6,0.8-1.2,1.6-2.1,2.7c0.4,0.2,0.6,0.2,0.8,0.2c1,0,2.3,0.6,2.5-1c0-0.2,0.2-0.2,0.4-0.2
		c0.8-0.6,1.6-1,2.5-1.8c1.8-1.6,3.9-2.9,6.2-3.9c1-0.4,2.1-0.8,2.5-1.8c0-0.2,0.4-0.4,0.6-0.4c1.4-0.2,2.3-1.2,3.1-2.1
		c1.2-1.2,2.9-2.5,3.7-3.9c1-1.4,2.1-2.7,3.5-3.5c1.6-1,2.5-2.5,3.3-4.1c1-2.3,1.4-4.7,3.1-6.8c1-1.2,1.2-2.9,1.4-4.5
		c0-0.2,0-0.6-0.2-0.6c-0.8-0.4-1.6-1-2.5-0.8C813,240.3,811.1,238.8,809.3,240.5z M782.6,181.8c0,0.2,0.2,0.2,0.2,0.4l0.2,0.2
		c0,1.2,0.6,1.8,1.8,1.8c1,0,2.1,0,2.9,0.6s1.6,1,2.5,1.2c0.8,0.4,1,1,1.4,1.6c0.8,0.8,2.1,1.2,2.9,2.3c1.2,1.2,2.5,1.2,4.3,1
		c-0.6-0.8-1-1.2-1.4-1.8c-0.6-0.8-1.2-1.4-0.4-2.5c-0.4-0.4-0.8-0.6-1-1c0.4-1,0.4-1.4-0.4-2.1c-1-0.6-2.3-1.2-3.5-1.8
		c-1.2-0.4-2.3-0.8-3.5-1.2c-1-0.2-2.3-0.4-3.3-0.6c-0.6,0-1,0-1.8,0c0.4,0.4,0.6,0.8,0.6,1c-0.8,0-1.8,0-2.7,0
		c-0.8,0.2-1.6,0.4-2.5,0.6c0,0.2,0,0.2,0,0.4c0.4,0.2,0.8,0.4,1.2,0.4c-0.2,0.6-0.2,1.2-0.4,1.8
		C781.8,184.5,782.4,184.1,782.6,181.8z M790.2,189.8c0-1-0.2-1.6-1.2-1.8c-0.4,0-1-0.2-1.4-0.4c-2.1-1.2-4.1-2.1-6.6-1.8
		c-0.6,0-1,0.2-1,0.8c0,0.6,0.2,1.2,1,1.2s1.8,0,2.7,0c0.4,0,0.8,0.4,1,0.8c0.2,0.2,0.2,0.4,0.4,0.6V189c0.6,0,1,0,1.8,0
		c-0.6,0.6-0.8,0.8-1.2,1.2c-0.2,0.2-0.2,0.4-0.4,0.6c0.2,0,0.4,0.2,0.6,0.2c0.6,0.2,1,0.2,1.6,0.4c0.6,0.2,1.2,0.4,1.8,0.6
		c0.8,0.2,1-0.4,1-0.8c0-0.2-0.2-0.6-0.4-0.8c-0.2-0.2-0.4-0.4-0.8-0.6C789.4,189.8,789.8,189.8,790.2,189.8z M781.2,224.5
		c0,0.2,0,0.2,0,0.4c0.4,0,0.8,0,1.2,0c1.4-0.4,2.7,0,3.9,0.4c0.6,0.2,1,0.6,1.6,1.2c2.3-0.2,2.3-0.2,2.5-1.2
		c-0.6-0.2-1.4,0-1.8-0.4c-1.2-1-2.7-0.8-4.1-1.2C783.4,223,782.4,223.9,781.2,224.5z M790.8,226.9c0.6,0.4,1,0.8,1.4,1
		c0.4,0.2,1,0.2,1.4,0.2c0-0.4-0.2-0.6-0.2-1.2c0.4,0,1-0.2,1.6-0.2c-0.4-1.6-1.6-1.2-2.7-1.2C791.2,225.3,791.9,226.9,790.8,226.9z
		"/>
	<path fill="none" d="M725.4,228.4c0,0.4,0.2,0.8,0.2,1.2c0.2,7,1.8,13.7,4.7,20.1c4.9,10.7,12.7,18.9,23.2,24.4
		c5.1,2.7,10.7,4.5,16.4,5.3c2.1,0.4,4.1,0.4,5.9,0.6c0.4,0,1,0.2,1.4,0.2C759.9,280.3,725.4,245.8,725.4,228.4z"/>
	<path fill="#00FF00" stroke="#00FF00" stroke-width="0.32" stroke-miterlimit="10" d="M809.3,240.5c1.8-1.4,3.7-0.2,5.5-0.4
		c0.8-0.2,1.6,0.6,2.5,0.8c0.2,0,0.2,0.4,0.2,0.6c0,1.6-0.4,3.3-1.4,4.5c-1.6,2.1-2.1,4.5-3.1,6.8c-0.6,1.6-1.6,3.1-3.3,4.1
		c-1.4,0.8-2.7,2.1-3.5,3.5c-1,1.4-2.5,2.7-3.7,3.9c-0.8,0.8-1.8,1.8-3.1,2.1c-0.2,0-0.4,0.2-0.6,0.4c-0.4,1.2-1.4,1.4-2.5,1.8
		c-2.3,1-4.3,2.3-6.2,3.9c-0.8,0.8-1.6,1.2-2.5,1.8c-0.2,0-0.4,0.2-0.4,0.2c-0.4,1.6-1.6,1-2.5,1c-0.2,0-0.4,0-0.8-0.2
		c0.8-1,1.4-1.8,2.1-2.7c0.4-0.6,1-0.8,1-1.8c0-0.6,0.6-1.2,1-1.6c1.8-1.8,2.9-4.3,3.9-6.6c0.6-1.6,0.8-3.3,1.4-4.9
		c-1.2-0.6-2.5-1.2-3.5-1.8c-0.4-0.2-1-0.8-1.2-1.2c-0.6-1.8-1.4-3.5-3.1-4.7c-1.2-1-1-1.8-0.2-2.9c0.2-0.2,0.2-0.6,0.2-0.6
		c-0.8-1.4,0-2.5,0.6-3.7c0.2-0.4,0.6-0.8,0.8-1c1.2-1.4,1.4-3.1,0.4-4.7c-0.2-0.4-0.6-0.6-1-0.8c-1.2,1.6-1.2,1.6-2.9,0.8
		c-1.2-0.6-2.5-1.2-3.3-2.5c-0.6-1-1.6-1.8-3.1-1.8s-2.7-0.8-3.5-1.8c-0.4-0.6-1-0.6-1.6-0.4c-0.8,0.4-1.6,0.2-2.5-0.2
		c-1.6-1-3.5-2.1-5.1-3.1c-0.8-0.4-1-0.8-0.8-1.6c0-0.6-0.2-1.2-0.4-1.6c-1.2-1.8-2.5-3.5-3.7-5.3c-0.4-0.6-0.6-1.2-0.8-1.8
		c-0.2-0.4-0.2-0.6-0.4-1c-0.2,0-0.2,0-0.4,0.2c0.8,2.5,1.8,4.7,2.7,7.2l-0.2,0.2c-0.4-0.4-1-0.6-1.2-1c-0.6-0.8-1-1.8-1.4-2.9
		c-0.2-0.8-0.4-1.6-0.6-2.3c-0.4-1.6-1-3.1-2.1-4.3c-1.6-2.3-2.1-4.9-0.6-7.6c0.6-1.2,1-2.5,1.6-3.9c0.4,0,0.6,0.2,1,0.2
		c0-0.2,0-0.2,0-0.4c-1.4-1.4-1.2-3.3-1.2-4.9c0-1.2-0.4-2.7-1-3.9c-0.4-0.8-1.2-1.4-2.5-1.8c-1.2-0.4-1.4,0.4-2.3,0.4
		c-1.4,0.4-2.9,0.6-4.3,0.8c-0.2,0-0.4-0.2-0.8-0.4c1.4-0.4,2.5-0.6,3.5-1c0.2-0.6,0.2-1,0.4-1.2c0-0.2,0.4-0.4,0.4-0.6
		c0.4-1.2,1-1.8,2.5-1.4c0.2,0,0.6-0.4,0.6-0.6c0.2-0.2,0-0.6,0-1c0.4,0,0.6,0.2,1,0.2c0.4,0,0.8-0.2,1-0.4c0.6-1,2.7-1.4,3.7-0.8
		c0.8,0.6,1.4,1.2,2.1,2.1c0.2,0.2,0.6,0.4,1,0.4c2.1-0.2,3.9,0.2,5.3,1.8c0.2,0.2,0.4,0.2,0.6,0.2c0.4,0.2,0.8,0.2,1.4,0.4
		c0.4-0.8,1-0.8,1.8-0.4c0.4,0.2,0.8,0.2,1.2,0c0.2,0,0.4-0.6,0.4-0.8c-0.4-0.6-0.6-1.4-0.2-1.8c0.4-0.4,1.2-0.2,1.8-0.4
		c1.4-0.2,2.1,1,2.7,1.8c0.2,0.2,0.4,0.4,0.6,0.4c0.6,0,0.8,0.4,0.6,1c0,0.4-0.4,0.8-0.6,1c-1.4,0.8-2.7,2.1-3.5,3.5
		c-0.6,0.8,0.4,2.3,1.6,2.7c1,0.2,1.8,0.6,2.9,0.6c1.2,0.2,1.8,0.6,2.1,1.8c0.2,0.8,0.8,1.4,1.8,1c-0.2-0.4-0.2-0.6-0.4-1
		c-0.2-0.6-0.6-1.2,0.2-2.1c0.4-0.4,0.2-1-0.4-1.4c-0.8-0.6-1-1.2-1-2.1s0.4-1.2,1.2-1.2c1,0.2,2.3,0.2,3.1,1.2
		c0.2,0.4,0.6,0.4,1,0.6c0.2-0.4,0.4-0.8,0.6-1c0,0,0,0,0.2-0.2c0.6,0.4,1.6,0.8,2.1,1.4c0.8,1,2.1,1.4,3.3,1.8
		c0.8,0.4,1.6,0.6,1.4,1.6c-0.2,0.8-0.6,1.8-1.6,1.8c-0.2,0-0.6,0.2-0.8,0.2c-1.6,0-2.3,1-2.9,2.5c0.4-0.4,0.6-0.8,1-1
		c0.8-0.8,1.6-0.8,2.1,0.4c0.4,1,1.2,1.4,2.5,1.4c-0.6,0.8-1.2,1.4-1.8,2.1c-0.2-0.4-0.4-0.8-0.6-1.2c-0.8,0.8-2.1,1-1.8,2.7
		c0,0.2-0.2,0.6-0.4,0.8c-0.8,0.6-1.2,1.4-1.4,2.3c-0.2,0.8-0.8,1.6-0.4,2.5c0,0.2-0.2,0.6-0.4,0.8c-0.6,0.8-1.2,1.4-2.1,2.3
		c-0.8,0.8-1,1.4-0.4,2.5c0.4,0.8,0.6,1.8,0.8,2.7c0,0.4,0,0.8-0.2,1.2c-0.2,0-0.2,0.2-0.4,0.2c-0.6-0.8-1.4-1.4-1.8-2.3
		c-0.4-1-1-1.4-2.1-1.6c-0.6,0-1-0.2-1.6-0.2c-0.8-0.2-1.6,0-1.4,1.2c-1-0.2-2.1-0.4-3.1-0.4c-1-0.2-2.7,0.6-2.9,1.6
		c-0.4,1.2-0.6,2.7-0.8,4.1c0,0.2,0.2,0.6,0.2,1c0.2,0.4,0.6,1,0.8,1.4c0.4,0.4,0.6,1.2,1.2,1.2c0.8,0.2,1.8,0,2.7-0.2
		c0.4,0,0.6-0.6,1-1.2c0.8-1.6,1.4-1.8,3.3-1.2c-0.4,1.6-0.8,3.1-1.4,4.9c1,0,1.8,0,2.7,0c1.4-0.2,2.1,0.2,2.1,1.6
		c0,0.8,0,1.4,0,2.3c0,1,1.6,2.1,2.5,1.6c1-0.6,1.8-0.4,2.7,0c0.6,0.2,0.8,0,1-0.4c0.8-1,1.8-1.8,2.9-2.7c0.4-0.4,0.8-0.2,1.4,0
		c0.8,0.4,1.8,0.4,2.7,0.4s1.8,0,2.7,0c0.6,0,1,0,1.6,0.2c0.8,0.2,1.4,0.6,2.1,1c1.2,0.8,2.5,1.2,3.9,1c0.8-0.2,1.2,0.2,1.6,0.8
		c0.2,0.2,0.4,0.6,0.6,0.8C809.5,237.8,810.1,239,809.3,240.5z"/>
	<path fill="#00FF00" stroke="#00FF00" stroke-width="0.32" stroke-miterlimit="10" d="M782.6,181.8c-0.2,2.3-0.8,2.7-2.9,2.5
		c0.2-0.6,0.2-1.2,0.4-1.8c-0.4-0.2-0.8-0.4-1.2-0.4c0-0.2,0-0.2,0-0.4c0.8-0.2,1.6-0.6,2.5-0.6c0.8-0.2,1.6,0,2.7,0
		c-0.2-0.2-0.4-0.4-0.6-1c0.8,0,1.4,0,1.8,0c1,0.2,2.3,0.4,3.3,0.6c1.2,0.4,2.5,0.8,3.5,1.2c1.2,0.6,2.3,1,3.5,1.8
		c1,0.6,1,1,0.4,2.1c0.4,0.2,0.6,0.6,1,1c-0.8,1-0.2,1.6,0.4,2.5c0.4,0.6,0.8,1,1.4,1.8c-1.8,0.2-3.3,0.2-4.3-1
		c-0.8-0.8-2.1-1.4-2.9-2.3c-0.4-0.4-0.6-1.2-1.4-1.6c-0.8-0.4-1.6-0.8-2.5-1.2c-1-0.6-1.8-0.6-2.9-0.6c-1.2,0-1.8-0.4-1.8-1.8
		c0,0,0-0.2-0.2-0.2C782.8,182,782.6,182,782.6,181.8z"/>
	<path fill="#00FF00" stroke="#00FF00" stroke-width="0.32" stroke-miterlimit="10" d="M790.2,189.8c-0.4,0-0.6,0-1,0
		c0.4,0.2,0.6,0.4,0.8,0.6c0.2,0.2,0.6,0.6,0.4,0.8c-0.2,0.4-0.2,1-1,0.8c-0.6-0.2-1.2-0.4-1.8-0.6c-0.4-0.2-1-0.2-1.6-0.4
		c-0.2,0-0.4-0.2-0.6-0.2c0.2-0.2,0.2-0.4,0.4-0.6c0.2-0.4,0.6-0.6,1.2-1.2c-0.8,0-1.2,0-1.8,0v0.2c-0.2-0.2-0.2-0.4-0.4-0.6
		c-0.4-0.2-0.6-0.6-1-0.8c-0.8-0.2-1.8,0-2.7,0s-1-0.4-1-1.2c0-0.6,0.4-0.8,1-0.8c2.5-0.2,4.7,0.6,6.6,1.8c0.4,0.2,1,0.4,1.4,0.4
		C790,188.2,790.2,188.8,790.2,189.8z"/>
	<path fill="#00FF00" stroke="#00FF00" stroke-width="0.32" stroke-miterlimit="10" d="M781.2,224.5c1.2-0.4,2.3-1.4,3.5-1
		c1.4,0.4,2.9,0.2,4.1,1.2c0.4,0.4,1.2,0.2,1.8,0.4c-0.2,1-0.2,1-2.5,1.2c-0.6-0.4-1-1-1.6-1.2c-1.2-0.4-2.5-0.8-3.9-0.4
		c-0.4,0.2-0.8,0-1.2,0C781.2,224.7,781.2,224.5,781.2,224.5z"/>
	<path fill="#00FF00" stroke="#00FF00" stroke-width="0.32" stroke-miterlimit="10" d="M790.8,226.9c1,0,0.2-1.8,1.6-1.6
		c1,0.2,2.3-0.2,2.7,1.2c-0.6,0-1.2,0.2-1.6,0.2c0,0.4,0.2,0.8,0.2,1.2c-0.4,0-1,0-1.4-0.2C791.9,227.8,791.4,227.4,790.8,226.9z"/>
</g>
<path fill="none" d="M577.9,246.5"/>
<path fill="#FFCC33" stroke="#FFCC33" stroke-width="1.6" stroke-miterlimit="10" d="M745.5,248.1"/>
<path fill="none" d="M533.9,230.5"/>
<g>
	<path fill="#F4E638" stroke="#F4E638" stroke-width="0.98" stroke-miterlimit="10" d="M285.2,317.7l0.3-31.4l-10.9,2.2l0.1-6.4
		l29.4-5.6l-0.1,6.4l-10.9,2l-0.3,31.4L285.2,317.7z"/>
	<path fill="#F4E638" stroke="#F4E638" stroke-width="0.98" stroke-miterlimit="10" d="M312.4,312.5l-7,1.4l0.2-27.4l6.5-1.3l0,3.9
		c1.1-2.1,2.2-3.5,3.1-4.2c0.9-0.7,1.9-1.2,3-1.5c1.6-0.4,3.1-0.2,4.6,0.4l-2.2,6.8c-1.1-0.5-2.3-0.8-3.3-0.5s-1.9,0.6-2.5,1.4
		c-0.6,0.7-1.3,1.9-1.7,3.4c-0.4,1.5-0.7,4.6-0.7,9.3L312.4,312.5z"/>
	<path fill="#F4E638" stroke="#F4E638" stroke-width="0.98" stroke-miterlimit="10" d="M331.2,289.5l-6.4,0.2c0.8-2.8,2.1-5,3.8-6.7
		c1.8-1.6,4.4-2.9,7.8-3.7c3.1-0.7,5.5-0.8,7-0.4c1.5,0.4,2.6,1.2,3.2,2.2s0.9,3.1,0.8,6.3l-0.2,8.4c0,2.4,0.1,4.1,0.3,5.3
		c0.2,1.1,0.6,2.3,1.2,3.4l-7,1.6c-0.1-0.4-0.4-1.1-0.6-2c-0.1-0.4-0.2-0.6-0.2-0.8c-1.3,1.5-2.5,2.6-3.9,3.6
		c-1.4,0.9-2.9,1.5-4.4,1.8c-2.8,0.6-4.9,0.3-6.5-0.8c-1.6-1.1-2.4-2.9-2.3-5.3c0-1.5,0.4-3,1.2-4.4c0.8-1.4,1.8-2.5,3-3.5
		c1.3-1,3.2-1.9,5.7-3c3.3-1.4,5.5-2.5,6.9-3.3l0-0.8c0-1.4-0.4-2.3-1-2.8c-0.6-0.4-1.9-0.5-3.8,0c-1.3,0.2-2.3,0.7-2.9,1.4
		C332.2,287.1,331.6,288.1,331.2,289.5z M340.6,293.4c-0.9,0.5-2.4,1.2-4.3,2.1c-2,0.9-3.3,1.6-3.9,2.1c-0.9,0.9-1.4,1.9-1.4,2.9
		c0,1,0.4,1.8,1.1,2.4c0.7,0.6,1.6,0.8,2.8,0.5c1.3-0.2,2.5-1,3.7-2.1c0.9-0.9,1.4-1.7,1.7-2.7c0.1-0.6,0.3-1.9,0.3-3.6l0-1.5
		L340.6,293.4z"/>
	<path fill="#F4E638" stroke="#F4E638" stroke-width="0.98" stroke-miterlimit="10" d="M361.6,301.6l-10.5-24.8l7.4-1.8l4.9,12.7
		l1.5,4.3c0.4-1.3,0.6-2.1,0.8-2.5c0.3-0.9,0.5-1.6,0.8-2.5l5.2-15.2l7.2-1.7L368,300L361.6,301.6z"/>
	<path fill="#F4E638" stroke="#F4E638" stroke-width="0.98" stroke-miterlimit="10" d="M398.2,283.6l6.9-0.7
		c-0.9,2.9-2.3,5.3-4.3,7.1c-1.9,1.9-4.4,3.2-7.3,4c-4.5,1.2-8,0.6-10.2-2c-1.7-2-2.6-4.9-2.6-8.7c0-4.5,1.2-8.4,3.5-11.5
		c2.3-3.1,5.2-5.2,8.7-6.2c3.9-1.1,7-0.6,9.3,1.6s3.3,5.9,3.2,11.5l-17.5,4.7c0,2.1,0.6,3.6,1.6,4.5c1.1,0.9,2.4,1.2,4,0.7
		c1.1-0.2,2-0.9,2.8-1.6C397.3,286.2,397.8,284.9,398.2,283.6z M398.6,276.2c0-2.1-0.6-3.5-1.5-4.4c-0.9-0.9-2.3-1-3.6-0.7
		c-1.5,0.4-2.8,1.4-3.8,2.7c-1,1.4-1.5,3.1-1.6,5.1L398.6,276.2z"/>
	<path fill="#F4E638" stroke="#F4E638" stroke-width="0.98" stroke-miterlimit="10" d="M411.1,288.6l0.3-37.8l6.9-2.1l-0.3,37.8
		L411.1,288.6z"/>
	<path fill="#F4E638" stroke="#F4E638" stroke-width="0.98" stroke-miterlimit="10" d="M422.8,277.5l6.9-3.3
		c0.2,1.3,0.9,2.1,1.7,2.7c0.9,0.4,2.1,0.4,3.8-0.1c1.8-0.6,3.2-1.4,4-2.4c0.6-0.6,0.9-1.4,0.9-2.3c0-0.5-0.1-1-0.5-1.3
		c-0.4-0.3-1.1-0.3-2.3-0.3c-5.5,0.5-9,0.4-10.5-0.2c-2-0.8-3.1-2.5-3.1-5.2c0-2.4,0.9-4.6,2.7-6.9c1.8-2.1,4.6-3.9,8.3-5.1
		c3.5-1.1,6.2-1.3,7.9-0.7s2.9,2,3.5,4.3l-6.6,3.3c-0.2-1-0.7-1.6-1.6-1.9c-0.8-0.3-1.9-0.3-3.3,0.2c-1.8,0.6-3.2,1.2-3.9,2
		c-0.5,0.5-0.8,1.1-0.8,1.8c0,0.5,0.2,0.9,0.6,1.1c0.6,0.3,2.8,0.3,6.4,0.1s6.3-0.1,7.7,0.8c1.4,0.9,2.1,2.4,2.1,4.7
		c0,2.5-1,5-3.1,7.4c-2,2.5-4.9,4.2-8.8,5.4c-3.5,1.1-6.4,1.2-8.4,0.4C424.8,281.5,423.5,279.9,422.8,277.5z"/>
	<path fill="#F4E638" stroke="#F4E638" stroke-width="0.98" stroke-miterlimit="10" d="M471.8,268.9l-7.8-24.2l6.6-2.6l4.6,16
		l4.6-19.7l6.4-2.6l4.1,16.2l5.1-19.8l6.7-2.6l-8.4,30.6l-6.4,2.6l-4.3-15.9l-4.4,19.3L471.8,268.9z"/>
	<path fill="#F4E638" stroke="#F4E638" stroke-width="0.98" stroke-miterlimit="10" d="M505.2,224.1l0.1-6.7l6.6-3.1l-0.1,6.7
		L505.2,224.1z M504.9,255.1l0.2-27.3l6.6-3.1l-0.2,27.4L504.9,255.1z"/>
	<path fill="#F4E638" stroke="#F4E638" stroke-width="0.98" stroke-miterlimit="10" d="M529.5,215.8l-0.1,5.8l-4.4,2.2l-0.1,11.1
		c0,2.3,0,3.5,0.1,3.9c0.1,0.4,0.2,0.5,0.6,0.6c0.3,0.1,0.6,0,1.1-0.2c0.6-0.2,1.5-1,2.5-2l0.5,5.3c-1.5,1.5-3.2,2.7-5.1,3.7
		c-1.1,0.6-2.1,0.9-3.1,1c-0.9,0-1.6-0.1-2-0.6c-0.4-0.5-0.7-1.3-0.9-2.4c-0.1-0.8-0.2-2.4-0.2-5l0.1-11.9l-2.9,1.5l0-5.7l2.9-1.5
		l0-5.4l6.5-7.6l-0.1,9.7L529.5,215.8z"/>
	<path fill="#F4E638" stroke="#F4E638" stroke-width="0.98" stroke-miterlimit="10" d="M540.2,199.3l-0.1,13.8c2-4,4.3-6.9,7.1-8.6
		c1.4-0.9,2.6-1.4,3.8-1.5c1.1-0.1,2,0.1,2.5,0.8c0.6,0.6,1,1.4,1.1,2.4c0.2,1,0.4,2.8,0.3,5.3l-0.1,16.1l-6.2,3.8l0.1-14.4
		c0-2.9-0.1-4.6-0.3-5.3c-0.2-0.6-0.6-1-1.2-1c-0.6-0.1-1.4,0.1-2.3,0.7c-1,0.6-1.9,1.5-2.8,2.6c-0.8,1.1-1.4,2.4-1.8,3.8
		c-0.4,1.4-0.5,3.3-0.6,5.5l-0.1,13.7l-6.2,3.8l0.3-37.8L540.2,199.3z"/>
</g>
<g id="Layer_3">
</g>
</svg>
