<?xml version="1.0" encoding="utf-8"?>
<!-- Generator: Adobe Illustrator 18.1.1, SVG Export Plug-In . SVG Version: 6.00 Build 0)  -->
<svg version="1.1" id="Layer_1" xmlns="http://www.w3.org/2000/svg" xmlns:xlink="http://www.w3.org/1999/xlink" x="0px" y="0px"
	 viewBox="-155.8 69.2 632.6 255.4" enable-background="new -155.8 69.2 632.6 255.4" xml:space="preserve">
<title>nc state</title>
<g>
	<title>Layer 2</title>
	<path id="path9765" fill="#D0C9C3" d="M472.8,134.6c-0.1,0.9,6.5,20,3,20l-2.6,0c-1.1,1.8,1.2,4.5,1.1,5.4c-0.2,0.3-4.1,5.4-5,5.4
		c-0.9,0-0.7-1.7-0.7-1.8c-0.9,0-1.7,0-1.7,0c-0.9,0-1.6-0.9-1.5-1.8c-1,0.9-2,2.6-2,2.7c-1.2,2.7-0.2,1.8-1.2,2.7
		c-1,0.9-11.2,11-11.8,11.6c-0.1,0.9-0.3,2.6-0.3,2.7l-1.9,1.8c0,0.1,0.7,1.8-0.2,1.8l-6.2,0.8c-0.1,0.1-1.1,1.8-1.9,1.8
		c-1.7,0-3.2-1.8-3.3-1.9c0.1-0.9-0.8-0.9-0.7-1.8c-0.9,0-1.1,1.7-1.1,1.8c-0.9,0-1,0.9-1.8,0.9c-0.9,0-2.4-1.9-2.3-2.8l-0.7-1.8
		c-1,0.9-2.2,4.3-2.3,4.5c0,0,0,0-1.7,0c-0.9,0-2.5,0-2.6,0c0-0.1-0.7-1.8,0.2-1.8l1.7,0c0.9,0,1.8-0.8,1.8-0.9
		c-0.1-0.1-1.5-1.8-1.4-2.7c0.1-0.9,0.3-2.7-0.6-2.7l-2.8,1.8c-0.1,0.5-0.1,0-0.4,0c-0.5,0-1.7,2.9-1.8,3.6c-0.9,0-1.6-0.9-1.6-0.9
		c0.1-0.9-4.7-4.6-4.4-7.3c0.1,0,2,0.8,3.9,0.9c1.6,0,3.1-0.5,3.3-2.6c0.1-0.9,0.2-1.8,0.2-1.8c-0.7-1.8-8.1-1.9-8.5-2
		c-1.7,0-3.4-1-4.2-1c0,0-0.9,0-1.7,0c0.6,2.7,0.5,3.6,0.4,4.5c-1.4,0-2.4-0.4-3.2-0.5c-1.2,1.3-0.4,1.3,0.5,1.3
		c1.7,0,2.6,0,4.5-0.8c0,0,0.8,0.9,1.6,0.9c-1.2,2.7,0.6,2.7,0.5,3.6c-0.2,1.8-0.4,3.5-0.4,3.6c-1.7,0-7.4-3.7-13.5-3.8
		c0-0.1-0.6-2.7,0.3-2.7c-1.8,0.9-2,2.7-2.9,2.7c-0.1-0.1-1.5-1.8-2.4-1.9c-0.9,0-3.5-0.1-4.4-0.1c-2.6,0-4.9-2.8-8.2-4.7
		c-0.2,1.8,3.1,3.7,3,4.6l2.3,2.8c0.1,0,1.8-0.9,2.7-0.9c1.1,1.3,2.8,2.2,4.6,2.2c0.7,0,1.4-0.1,2.1-0.3c0.8,0.9,0.6,2.7,0.5,3.6
		c0.9,0,2.5,0,2.6,0c0.9,0,2.5,0.9,3.4,1c0.2,0.2,3.1,3.7,2.2,3.7c0.7,0.3,1.3,0.2,1.8,0c0.6-0.1,1.2-0.2,1.9-0.2
		c0.5,0,1,0.1,1.5,0.3c-0.3,2.7-2.2,3.6-2.3,4.5c4.3,0.1,5.2,0.1,5.3-0.8c-0.1,0-1.7,0-1.6-0.9l-0.7-1.8c0,0,1-0.9,1.8-0.9
		c0,0,0.8,0.9,0.7,1.8l1.7,0c0.9,0,1.8-0.8,1.8-0.9l1.6,0.9c0.3,5.4,1.4,2.7,0.8,8.2c-1.7,0-2.5-0.9-4.2-1c-0.1,0.9,0.7,1.8,1.4,2.7
		c-2.2,1.1-2.8-0.2-3.4-1c-1,0.9-1.9,0.9-2.7,0.9l-0.2,1.8c-1.7,0-3.5-0.1-3.6,0.8c0.8,0.9,2.5,1,3.4,1c-0.1,0.9,1.6,0.9,1.6,0.9
		c0.1-0.9,1.8-0.9,1.8-0.9c0,0,0.8,0.9,0.7,1.8c-0.2,1.8-2.1,3.6-3.9,3.6c-0.4,3.6-3,3.6-3.3,6.3c-1.8,0.9-3.5-0.1-5.3,0.8
		c-1,2.2-2.5,1.8-3.7,1.8c0.8,0.7,0.4,2.7-0.3,2.7c-11.3-0.2-10.4-8.3-14.7-8.4c-0.1-0.1-2.3-2.8-3.1-3.7c-0.1,0.9,0.7,1.8,0.6,2.7
		c0.7,1.8,2.2,3.7,2.9,5.5c1.2,4.6,3.8,4.6,3.3,9.1c1.7,0,1.9-1.7,1.9-1.8c0.1,0,1.7,0,1.6,0.9c0.9,0-0.1,0.9-0.2,1.8
		c1-0.9,2-1.8,2.8-1.8c1.7,0,4.3,0.1,4,2.8c2.4-0.7,4.2-4.3,6-4.3c0.5,0,0.9,0.2,1.4,0.8c0.7,1.8,1.6,1,1.6,0.9
		c0.1-0.9-0.4-3.5-0.5-3.6c1-0.9,3.5-0.9,3.6-0.9c0.1,0.1,2.4,1.9,3.3,1.9c0,0.1,0.7,1.8,0.6,2.7c0.1-0.9,0.3-2.6,0.3-2.7
		c0-0.1-0.7-1.8-0.6-2.7l1.7,0c1.7,0,2.3,2.8,4.9,2.8c-2.6,0-1.6-9.1-1.5-10l2.7-0.9c0.9,0,1.4,2.7,1.3,3.6
		c-0.1,0.9-1.1,1.8-1.2,2.7c0.1,0,1.6,0.9,1.5,1.8c0,0-1,0.9-1.1,1.8c1.6,0.9,3.4,1,4.2,1c0.1-0.1,1.1-1.8,1.2-2.7l1.8-0.9
		c0.4-1.2-0.8-2-1.4-2.7c0.9,0,1.7,0,1.7,0c3.5,0.1,3,4.6,2.6,8.2c-0.1,0-1.6-0.9-2.5-0.9c-0.1,0-1.9,0.9-1.1,1.8l1.6,0.9
		c-0.1,0.9-1.2,3.5-1.3,3.6c-0.1,0-1.9,0.9-2.7,0.9c-0.9,0-1.7,0-1.7,0c-0.9,0,0.1-1.7,0.2-1.8c-1,0.9-1.2,2.6-1.2,2.7
		c-0.1,0.9-2.9,2.7-3.8,2.7c-4.4-0.1-4.5,9-6.2,8.9c-0.4,0-1.3,0.2-2.1,0.2c-0.8,0-1.4-0.3-1.3-1.2c0.1-0.9,1.1-1.8,1.2-2.7
		c0.1-0.9-2.2-2.7-2.3-2.8c-1.2,2.7-1.4,4.5-1.6,6.3c-0.1,0-1.8,0.9-2.7,0.9c-0.8-0.9-0.7-1.8-0.6-2.7c0.1-0.9-1.4-2.7-2.3-2.8
		c-0.8-0.9-2.4-0.9-2.5-0.9l-1.9,1.8c0.8,0.9,1.7,0,2.6,0l-0.2,1.8c-0.1,0.9-1.1,1.8-1.9,1.8c-7-0.1-14.2,2.5-20.4,3.3
		c-0.1,0-2.7,0.9-4.5,0.8c0.9,0,1-0.9,1.1-1.8c-0.8-0.9-2.2-2.6-2.3-2.7c-1.4,4.5-1.3,3.6-3.4,7.2c0,0-1,0.9-1.8,0.9
		c-1.1,1.8-3.9,3.6-5.7,4.4c-1.1,1.8-3,4.3-3.1,4.5c-2,0.1-5.6-2.7-5.8-2.8c1.1-1.8,3-3.6,5-5.4c-1.6-0.9-4.8-3.7-4.6-5.5
		c1-0.9,1.9-1.8,2-2.7c-0.4,0-1.6,0.2-2.6,0.2c-1.1,0-2.2-0.3-2.5-1.2c-0.2,1.8,0.4,4.5,0,7.2c7.9-0.8-0.5,4.5-0.6,5.4
		c-1.3,3.6,3.1,3.7,2.9,5.5c-0.1,0.9-1.1,1.8-1.2,2.7c-9.2,4.4-19.4,9.6-24.5,15.9c-1.8,0.9-3.3,6.3-7,8
		c-3.4,7.2-7.1,16.2-11.3,22.4c-1,0.9-3.2,5.4-3.3,6.3c-0.1,0.1-1.2,2.7-1.4,4.5c0.6,0.3,1.9-1,1.9-1.8c0.1-0.1,1.2-2.7,1.3-3.6
		c0.1-0.9,3.2-6,3.3-6.3c2.6-7.2,8.6-14.3,11.8-19.7c0.2-0.3,3.2-5.4,4.1-5.4l-5.3,8.1c-7,8-12,21.5-15.7,30.5l-2,2.7
		c-0.2,0-3.5-0.1-4.3-0.1c-2.6,0,0.2-1.8,0.3-2.7c2.6-0.2,3.5-0.4,3.7-1.8c0.1-0.9-0.6-1.8-0.7-1.8c0.2-1.8,2.7-8.1,3-10.8
		c0.4-3.6,0.6-12.2,0.6-12.6c-0.1-1-0.4-1.4-0.7-1.4c-0.8,0-1.9,2.2-2,2.3c-1.2,2.7,0.3,11.3,0.4,11.8c-0.7,6.3-2.8,9-3.7,9.9
		c-1,0.9-1.9,1.8-2,2.7c-6.8-1.9-12.9-2-15.5-2.1c-3.5-0.1-3.6,0.8-5.3,0.8c-1,0.9-3.6,0.8-4.5,0.8c-1.7,0-13.7,3.2-14.3,3.4
		l-74.8-86.2l-82.5-3.1l1.2-10.8l-8-13.7l-9,2.6l2.1-3.6c0.1-0.9-1.5-1.8-1.3-3.6c-3.4-0.4-68.3-7.7-85.4-8c-1.9,0-3.2,0-3.6,0.2
		c-0.9,0-2.8,1.8-4.6,1.7c-1.7,0-1.5-1.8-4.1-1.9l-20.7,6c-0.9-0.2-0.9,0.2-1.1,1.8l-6.4,2.6l-0.7-1.8l-25.2,6.8
		c-0.1,0.1-2,0.2-5.1,0.1c-18.5-0.3-77.8-3.1-80.9-3.3l2.3-19.9c2.1-3.6,7.2-4.2,12-4.1c1.4,0,2.9,0.1,4.1,0.2
		c1.3,0.1,2.5,0.2,3.5,0.2c1.3,0,2.3-0.1,2.7-0.4l0.2-1.8c0.1-0.9,1.1-1.8,1.2-2.7c0.1-0.9,0.1-0.9-0.5-3.6c-0.7-1.8,5.9-8.6,6.2-9
		c0.9,0,2.8-1.8,2.9-2.7c0.4-3.6,8.7,0.1,9.1-3.5c0.2-1.8,1.2-2.7,2.9-2.7c0.9,0,7.5,0.1,7.8,0.1c1.6-0.4,2.1-0.3,2.6,0
		c0.8,0.9,6,1,8.6,1c0.9,0,29-17.6,29.1-18.5c0.3,0,5.2,0.1,7.8,0.1c5.2,0.1,8.6-6.2,9.2-11.6c0.2-1.8,0.3-2.7,0.3-2.7
		c1.5-0.3,2.6-0.4,3.4-0.3c1.7,0,2.7,0.4,4.4,0.5c0.9,0,2.7-0.9,2.9-2.7c0.1-0.9,1-1.8,1.1-1.8c3.9-3.6,8.3-4.4,10.1-4.4
		c2.6,0,1.4,3.5,1.3,3.6c-0.1,0.9-0.2,1.8,0.7,1.8c-0.1,0.9-1,1.8-1.1,1.8c0,0,0.8,0.9,3.4,1c3.5,0.1,10.4-7.1,11.6-9.8
		c1.2-2.7,5.5-4.3,5.7-4.4c4.2,0.3,6.2-1.6,6.3-1.7l1.8-0.9c0.8,0,10.7,4.8,12.3,4.8c0.3-1,1.2-1.9,1.3-1.9c2.2-3.6,9-12.9,9.4-13.4
		c5.9-6.2,11.8-7,12.1-7c0.8,0.9,3.4,1,4.3,1c1.7,0,0.4-2.6,0.3-2.7c0.7-6.3,2.9-9.9,3.6-16.2c1.9-1.8,4-5.2,4.1-5.4
		c3.5,0.1,31.2,3.9,32.7,4.1c28.2,1.7,59.7,2.7,92.1,3.2c129.3,2.1,264.6-3.5,271.7-3.8l4.4,0.1l1.6,0.9l0.5,3.6
		c-0.1,0.9,0.6,1.8,0.7,1.8c0,0-0.1,0.9-0.2,1.8c-1.7,0-2.7,0.9-3.7,1.8c0.8,0.9,2.5,0.9,4.2,1c1.3,3.6,2.6,8.2,4.1,10
		c1.1-1.8,2.1-3.6,2.3-4.5c0.6,2.7,0.3,5.4,0,7.2c-0.2,1.8,1.7,8.2,4.1,10c0,0-0.1,0.9-0.3,2.7c-0.2,1.8,2,4.4,2.1,4.6
		c-0.1,0.9,2.2,3.7,2.1,4.6c-0.1,0.9-0.2,1.8-1.1,1.8c-0.9,0-4.9-2.8-4.5-6.4c0.3-2.7-1-6.2-1-6.3c-0.9,0-4.8-3.7-4.7-4.6
		c0.1-0.9-0.5-2.6-0.6-2.7c0,0-0.1,0.9-0.2,1.8c-0.1,0.9-0.3,2.6-0.3,2.7c-0.1,0.9,1.5,1.8,1.4,2.7c-1.9,1.8-0.4,3.6,0.5,3.6
		l1.5,1.8c-1.8,0.9-2.5-0.9-3.4-1c-1.7,0-2.5-0.9-2.5-0.9c-2.6,0-4.5-6.4-6.3-6.4c-0.9,0-3.3-1.9-4.1-1.9c-1,0.9,0.6,2.7,1.4,2.7
		c0.3,0.5,5.9,9.1,5.1,9.1c-0.1,0.9-0.2,1.8-1.9,1.8c-1.7,0-1.7,0-2.5-0.9c-0.6,0-1.1-0.8-1.4-0.8c-0.5,1.7,1.2,2.6,0.3,2.6
		c-0.1,0-1.7,0-2.6,0c-1.7,0-3.3-0.9-3.4-1c0.1-0.9-1.4-2.6-1.4-2.7c0.1-0.9-0.6-1.8-0.7-1.8c-0.9,0-1.7,0-1.8,0.9
		c-0.1,0.9,0.8,0.9,1.6,0.9c0.9,0,1.6,0.9,1.5,1.8c-0.1,0.9,0.5,2.6,0.6,2.7c-1,0.9-1,0.9-1.8,0.9c-0.9,0-1.6-0.9-2.5-0.9
		c-0.9,0-2.5-1-3.4-1c-0.9,0-4-1.8-4.1-1.9c0.1-0.9-0.7-1.8-1.5-1.8l3.8,4.6c0,0.1,0.7,1.8,1.5,1.8c-1,0.9-2.7,0.9-3.6,0.8
		c-0.9,0-1.7,0-1.7,0c-1.7,0-1,0.9-1.8,0.9l-1.7,0c0,0-0.1,0.9,0.7,1.8c0.9,0-1.3,3.6-3,3.6c-2.6,0-8.3-3.8-9.2-3.8
		c-3.6,0.8-6.7-2.8-6.2-6.4c0.4-3.6,1.7-7.2,1.9-9c0.2-1.8,1.2-2.7,1.3-3.6c0.1-0.9-0.5-2.6-0.6-2.7c-0.1,0-1.6-0.9-2.5-0.9
		c-0.1,0.9-0.2,1.8,0.7,1.8c0,0,0.8,0.9-0.2,1.8c-1,0.9-2,2.6-2,2.7c-0.3,2.7-0.4,19,0.4,19.9l0.5,3.6c-0.1,0.9-1.1,1.8-1.2,2.7
		c-0.1,0.1-2,2.7-1.2,2.7c1.7,0,6.2-0.8,7.1-0.8c0.9,0,3.6-0.8,5.3-0.8c1.7,0,2.8-1.8,3.7-1.7c0.9,0,4.6-1.7,5.4-1.7
		c1.5,1.8,2.2,3.7,4.8,3.7c3.5,0.1,2.5,0.9,3.4,1c0.9,0,0.9,0,1.8,0c0.1-0.9-1.4-2.7-0.5-3.6c2.2-0.7,10.7-1.9,15.2-1.8
		c1.1,0,1.9,0.1,2.4,0.3c0.1,0,2.5,0.9,2.4,1.8c-0.1,0.9-6.2,0.8-6.3,1.7c0.7,0.3,15,6.6,1.9,6.4c-0.9,0-1.7,0-1.8,0.9
		c1.6,0.9,1.5,1.8,2.3,2.8c0.8,0.9-0.3,2.7-0.4,3.6c-1.8,0.9-1.7,0-2.6,0l-1.7,0c-0.1,0.9,1.4,2.7,2.3,2.8c4.4,0.1,2.8,6.1,2.8,6.4
		c-4.2,0.1-6-1.9-6.8-1.9c-1.7,0-1.8,0.8-1.8,0.9l8.2,4.7c1.8,0,2.9-2.7,3-3.6c0.1-0.9,2.1-11.2,2.2-11.7c0.1-0.9,1.6-6.9,1.7-7.2
		c0.1-0.9,1-1.8,1.1-1.8c1.2-0.1,2.1,0.1,3.1,0.2c1,0.2,2.1,0.4,3.2,0.4c1.8,0,3.3-0.4,3.5-2.3c-0.1,0-2.5-0.9-2.4-1.9
		c-1.6-0.9-2.5-0.9-2.5-0.9c-0.9,0-0.2,1.8-1.9,1.8c-1.7,0-1.6-0.9-1.6-0.9c0-0.1,0.2-1.8,1.9-1.8c1.7,0,3.6-0.8,4.5-0.8
		c0.9,0,3.2,1.8,3.3,1.9L472.8,134.6L472.8,134.6z M400.7,187.8c-0.6,0-1.1,0.2-1.2,0.8l0.9,0l1.4-0.7c0,0-0.1,0-0.1,0
		C401.4,187.9,401,187.8,400.7,187.8"/>
</g>
<polygon fill="#D0C9C3" points="234,151 221.2,150.6 213.7,160.9 210.1,148.7 198,144.7 208.5,137.5 208.5,124.7 218.7,132.5 
	230.8,128.6 226.5,140.6 "/>
<polygon fill="#D0C9C3" points="244,158 236,156.8 230.4,162.7 229.1,154.7 221.8,151.2 229,147.5 230,139.5 235.8,145.2 
	243.7,143.7 240.1,150.9 "/>
<polygon fill="#A31369" points="292,174 271.9,164 252.9,176 255.5,152.5 238.8,136.8 260.5,132.3 269.2,110.6 280.1,131.3 
	302.1,133.6 287.1,150.9 "/>
<rect x="105.5" y="176.5" fill="none" width="330" height="42"/>
<text transform="matrix(1 0 0 1 105.4878 199.2248)" fill="#A31369" font-family="'MyriadPro-Regular'" font-size="32">based in Durham, NC</text>
<path fill="#A31369" d="M-414.8,215.1"/>
</svg>
