<?xml version="1.0" encoding="utf-8"?>
<!-- Generator: Adobe Illustrator 18.1.1, SVG Export Plug-In . SVG Version: 6.00 Build 0)  -->
<svg version="1.1" id="Layer_1" xmlns="http://www.w3.org/2000/svg" xmlns:xlink="http://www.w3.org/1999/xlink" x="0px" y="0px"
	 viewBox="1839.1 -53.7 453.5 550.3" enable-background="new 1839.1 -53.7 453.5 550.3" xml:space="preserve">
<g id="Layer_1_1_">
</g>
<g id="Layer_3">
</g>
<g>
	<rect x="1844.6" y="37" fill="#C6BEBE" width="72.3" height="26.5"/>
</g>
<g>
	<path fill="#C6BEBE" d="M1918.2,64.6h-74.7V35.7h74.7V64.6L1918.2,64.6z M1845.7,62.1h70v-24h-70V62.1z"/>
</g>
<path fill="#CE1938" d="M1916.8,36.4h-72.3V-7.1c0-7.9,6.5-14.5,14.5-14.5h43.5c7.9,0,14.5,6.5,14.5,14.5L1916.8,36.4L1916.8,36.4z"
	/>
<g>
	<g>
		<g>
			<g>
				<g>
					<g>
						<g>
							<g>
								<defs>
									<rect id="SVGID_1_" x="1803.4" y="64.3" width="528.1" height="328.6"/>
								</defs>
								<clipPath id="SVGID_2_">
									<use xlink:href="#SVGID_1_"  overflow="visible"/>
								</clipPath>
								<g clip-path="url(#SVGID_2_)">
									<g>
										<g>
											<g>
												<g>
													<path fill="#E12368" d="M1873.6,334.2c0,12.1,9.7,21.8,21.8,21.8h341.4c12.1,0,21.8-9.7,21.8-21.8v-491.9
														c0-12.1-9.7-21.8-21.8-21.8h-341.5c-12.1,0-21.8,9.7-21.8,21.8L1873.6,334.2L1873.6,334.2z"/>
												</g>
											</g>
										</g>
									</g>
									<g>
										<g>
											<g>
												<g>
													<path d="M2236.7,357.1h-341.5c-12.6,0-22.8-10.3-22.8-22.8v-492.1c0-12.6,10.3-22.8,22.8-22.8h341.5
														c12.6,0,22.8,10.3,22.8,22.8v492.1C2259.5,346.8,2249.5,357.1,2236.7,357.1z M1895.2-178.4c-11.3,0-20.6,9.2-20.6,20.6
														v492.1c0,11.3,9.2,20.6,20.6,20.6h341.5c11.3,0,20.6-9.2,20.6-20.6v-492.1c0-11.3-9.2-20.6-20.6-20.6L1895.2-178.4
														L1895.2-178.4z"/>
												</g>
											</g>
										</g>
									</g>
								</g>
							</g>
						</g>
					</g>
				</g>
			</g>
		</g>
	</g>
</g>
<g>
	<g>
		<g>
			<g>
				<g>
					<g>
						<g>
							<g>
								<defs>
									<rect id="SVGID_3_" x="1803.4" y="64.3" width="528.1" height="328.6"/>
								</defs>
								<clipPath id="SVGID_4_">
									<use xlink:href="#SVGID_3_"  overflow="visible"/>
								</clipPath>
								<g clip-path="url(#SVGID_4_)">
									<g>
										<g>
											<g>
												<g>
													<path fill="#E4AC23" d="M1873.6,334.2c0,12.1,9.7,21.8,21.8,21.8h341.4c12.1,0,21.8-9.7,21.8-21.8v-491.9
														c0-12.1-9.7-21.8-21.8-21.8h-341.5c-12.1,0-21.8,9.7-21.8,21.8L1873.6,334.2L1873.6,334.2z"/>
												</g>
											</g>
										</g>
									</g>
									<g>
										<g>
											<g>
												<g>
													<path d="M2236.7,357.1h-341.5c-12.6,0-22.8-10.3-22.8-22.8v-492.1c0-12.6,10.3-22.8,22.8-22.8h341.5
														c12.6,0,22.8,10.3,22.8,22.8v492.1C2259.5,346.8,2249.5,357.1,2236.7,357.1z M1895.2-178.4c-11.3,0-20.6,9.2-20.6,20.6
														v492.1c0,11.3,9.2,20.6,20.6,20.6h341.5c11.3,0,20.6-9.2,20.6-20.6v-492.1c0-11.3-9.2-20.6-20.6-20.6L1895.2-178.4
														L1895.2-178.4z"/>
												</g>
											</g>
										</g>
									</g>
								</g>
							</g>
						</g>
					</g>
				</g>
			</g>
		</g>
	</g>
</g>
<g>
	<g>
		<g>
			<g>
				<g>
					<g>
						<g>
							<g>
								<defs>
									<rect id="SVGID_5_" x="1803.4" y="64.3" width="528.1" height="328.6"/>
								</defs>
								<clipPath id="SVGID_6_">
									<use xlink:href="#SVGID_5_"  overflow="visible"/>
								</clipPath>
								<g clip-path="url(#SVGID_6_)">
									<g>
										<g>
											<path fill="#F3BB1A" d="M1945.9,384.8c-55.9,0-101.3-45.3-101.3-101.3v-390.8c0-55.9,45.3-101.3,101.3-101.3H2186
												c55.9,0,101.3,45.3,101.3,101.3v390.7c0,55.9-45.3,101.3-101.3,101.3L1945.9,384.8L1945.9,384.8z"/>
										</g>
									</g>
									<g>
										<g>
											<path fill="#F3BB1A" d="M2186.1,386H1946c-56.5,0-102.6-46.2-102.6-102.6v-390.8c0-56.5,46.2-102.6,102.6-102.6h240.2
												c56.5,0,102.6,46.2,102.6,102.6v390.8C2288.4,340.1,2242.7,386,2186.1,386z M1945.9-207.4
												c-55.3,0-100.2,44.9-100.2,100.2v390.8c0,55.3,44.9,100.2,100.2,100.2H2186c55.3,0,100.2-44.9,100.2-100.2v-390.7
												c0-55.3-44.9-100.2-100.2-100.2L1945.9-207.4L1945.9-207.4z"/>
										</g>
									</g>
								</g>
							</g>
						</g>
					</g>
				</g>
			</g>
		</g>
	</g>
</g>
<g>
	<g>
		<g>
			<g>
				<g>
					<g>
						<g>
							<g>
								<defs>
									<rect id="SVGID_7_" x="1803.4" y="64.3" width="528.1" height="328.6"/>
								</defs>
								<clipPath id="SVGID_8_">
									<use xlink:href="#SVGID_7_"  overflow="visible"/>
								</clipPath>
								<g clip-path="url(#SVGID_8_)">
									<g>
										<g>
											<path fill="#FFCD33" d="M1943.5,366c-43.5,0-78.6-35.2-78.6-78.6v-398.5c0-43.5,35.2-78.6,78.6-78.6h245
												c43.5,0,78.6,35.2,78.6,78.6v398.8c0,43.5-35.2,78.6-78.6,78.6h-245V366L1943.5,366L1943.5,366z"/>
										</g>
									</g>
									<g>
										<g>
											<path fill="#FFCD33" d="M2188.5,367.6h-245c-44.1,0-79.8-35.9-79.8-79.8V-111c0-44.1,35.9-79.8,79.8-79.8h245
												c44.1,0,79.8,35.9,79.8,79.8v398.7C2268.5,331.5,2232.5,367.6,2188.5,367.6z M1943.5-188.8c-42.7,0-77.4,34.7-77.4,77.6
												v398.7c0,42.7,34.7,77.4,77.4,77.4h245c42.7,0,77.4-34.7,77.4-77.4v-398.6c0-42.7-34.7-77.4-77.4-77.4h-245V-188.8
												L1943.5-188.8L1943.5-188.8z"/>
										</g>
									</g>
								</g>
							</g>
						</g>
					</g>
				</g>
			</g>
		</g>
	</g>
</g>
<g>
	<g>
		<g>
			<g>
				<g>
					<defs>
						<rect id="SVGID_9_" x="1803.4" y="64.3" width="528.1" height="328.6"/>
					</defs>
					<clipPath id="SVGID_10_">
						<use xlink:href="#SVGID_9_"  overflow="visible"/>
					</clipPath>
					<g clip-path="url(#SVGID_10_)">
						<g>
							<g>
								<path fill="#FDBA1C" d="M1892.9,273.9V-97.5c0-34.7,28-62.7,62.7-62.7h220.9c34.7,0,62.7,28,62.7,62.7v371.5
									c0,34.7-28,62.7-62.7,62.7h-220.9C1921.1,336.6,1892.9,308.6,1892.9,273.9z"/>
							</g>
						</g>
						<g>
							<g>
								<path fill="#FDBA1C" d="M2176.4,338h-220.9c-35.2,0-64-28.7-64-64V-97.5c0-35.2,28.7-64,64-64h220.9c35.2,0,64,28.7,64,64
									v371.5C2240.3,309.2,2211.7,338,2176.4,338z M1955.4-159c-34,0-61.6,27.6-61.6,61.6V274c0,34,27.6,61.6,61.6,61.6h220.9
									c34,0,61.6-27.6,61.6-61.6V-97.4c0-34-27.6-61.6-61.6-61.6H1955.4L1955.4-159z"/>
							</g>
						</g>
					</g>
				</g>
			</g>
		</g>
	</g>
</g>
<g>
	<g>
		<g>
			<g>
				<g>
					<g>
						<g>
							<g>
								<defs>
									<rect id="SVGID_11_" x="1803.4" y="64.3" width="528.1" height="328.6"/>
								</defs>
								<clipPath id="SVGID_12_">
									<use xlink:href="#SVGID_11_"  overflow="visible"/>
								</clipPath>
								<g clip-path="url(#SVGID_12_)">
									<g>
										<g>
											<path fill="#AEA198" d="M1955.4,312.5c-21.2,0-38.6-17.3-38.6-38.6V-97.5c0-21.2,17.3-38.6,38.6-38.6h220.9
												c21.2,0,38.6,17.3,38.6,38.6v371.5c0,21.2-17.3,38.6-38.6,38.6H1955.4L1955.4,312.5z"/>
										</g>
									</g>
								</g>
							</g>
						</g>
					</g>
				</g>
			</g>
		</g>
	</g>
</g>
<g>
	<g>
		<g>
			<g>
				<g>
					<g>
						<g>
							<g>
								<defs>
									<rect id="SVGID_13_" x="1803.4" y="64.3" width="528.1" height="328.6"/>
								</defs>
								<clipPath id="SVGID_14_">
									<use xlink:href="#SVGID_13_"  overflow="visible"/>
								</clipPath>
								<g clip-path="url(#SVGID_14_)">
									<g>
										<g>
											<rect x="1844.6" y="61.4" fill="none" width="448" height="323.7"/>
										</g>
									</g>
								</g>
							</g>
						</g>
					</g>
				</g>
			</g>
		</g>
	</g>
</g>
<g>
	<polygon fill="#FCF9CE" points="2215.4,63.8 2251.7,-51.8 2287.8,63.8 	"/>
</g>
<g>
	<path fill="#FCF9CE" d="M2288.7,64.4h-73.9l36.9-118.1L2288.7,64.4z M2216.2,63.5h71l-35.6-113.3L2216.2,63.5z"/>
</g>
<g>
	<g>
		<g>
			<g>
				<g>
					<g>
						<defs>
							<rect id="SVGID_15_" x="2215.4" y="-61.6" width="67.4" height="67.5"/>
						</defs>
						<clipPath id="SVGID_16_">
							<use xlink:href="#SVGID_15_"  overflow="visible"/>
						</clipPath>
						<g clip-path="url(#SVGID_16_)">
							<g>
								<polygon fill="#212019" points="2215.4,63.8 2251.7,-51.8 2287.8,63.8 								"/>
							</g>
							<g>
								<path d="M2288.7,64.4h-73.9l36.9-118.1L2288.7,64.4z M2216.2,63.5h71l-35.6-113.3L2216.2,63.5z"/>
							</g>
						</g>
					</g>
				</g>
			</g>
		</g>
	</g>
</g>
<g>
	<polygon fill="#EDE7AE" points="2238.6,63.8 2242.6,6.6 2233.2,6.6 2215.4,63.8 	"/>
</g>
<g>
	<path fill="#EEE7AF" d="M2239.1,64.4h-24.4L2232.8,6h10.5L2239.1,64.4z M2216.2,63.5h21.8l4.2-56.2h-8.4L2216.2,63.5z"/>
</g>
<g>
	<polygon fill="#F6EFB5" points="2287.8,63.8 2269.8,6.6 2259,6.6 2267.9,63.8 	"/>
</g>
<g>
	<path fill="#F5EEB3" d="M2288.7,64.4h-21.2L2258.4,6h12.1v0.6L2288.7,64.4z M2268.5,63.5h18.6l-17.6-56.1h-9.9L2268.5,63.5z"/>
</g>
<g>
	<path fill="#232320" stroke="#0B0B0B" stroke-width="0.4633" stroke-miterlimit="10" d="M2264.3-49.5"/>
</g>
<g>
	<polygon fill="#262624" points="2242.6,6.1 2233.5,6.1 2251.7,-51.8 	"/>
</g>
<g>
	<polygon points="2259,6.1 2251.7,-51.8 2270.2,6.1 	"/>
</g>
<polygon fill="#AEA198" points="1918.7,61.8 2214.9,61.6 2214.9,76 1918.7,76.2 "/>
<g>
	<path fill="#0B4F18" d="M1947.8,116c4.2,3,8.9,5.5,14.9,7.3c5.9,1.7,12.1,2.7,18.9,2.7c6.4,0,12.1-0.8,17.6-2.5
		c5.5-1.7,10.3-4.2,14.3-7.3v171.2H1948L1947.8,116L1947.8,116z M2012.9,91.5c0,6.7-1.9,12.9-5.5,17.6s-7.9,7.5-13.1,7.5
		s-9.4-2.5-13.3-7.5c-3.7-4.8-5.5-10.8-5.5-17.6c0-6.7,1.9-12.6,5.5-17.3c3.7-4.8,7.9-7.5,13.3-7.5c5.1,0,9.4,2.5,13.1,7.3
		C2011,78.7,2012.9,84.4,2012.9,91.5z"/>
</g>
<g>
	<path fill="#0B4F18" d="M2014.4,288.2h-67.8V113.7l1.9,1.5c3.9,3,8.7,5.3,14.5,7c5.7,1.7,11.9,2.5,18.3,2.5c6,0,11.9-0.8,17.3-2.5
		c5.3-1.7,10.2-4.2,14-7l1.9-1.5v174.4H2014.4L2014.4,288.2z M1949.1,285.8h63.2V118.5c-3.7,2.7-7.9,4.5-12.9,6
		c-5.5,1.7-11.6,2.7-17.9,2.7c-6.7,0-13.3-1-19-2.7c-5.1-1.5-9.7-3.7-13.3-6L1949.1,285.8L1949.1,285.8z M1994.3,117.5
		c-5.5,0-10.2-2.7-14.3-7.9c-3.9-5.1-5.7-11.3-5.7-18.3c0-7,1.9-13.1,5.7-18.1c3.9-5.3,8.7-7.9,14.3-7.9c5.3,0,10.2,2.7,14,7.6
		c3.9,4.8,5.7,10.8,5.7,18.1c0,7-1.9,13.3-5.7,18.3C2004.6,115,1999.7,117.5,1994.3,117.5z M1994.3,68.1c-4.8,0-8.7,2.1-12.4,7
		c-3.5,4.5-5.1,10.2-5.1,16.3c0,6.5,1.7,12.4,5.3,17c3.5,4.5,7.5,7,12.4,7c4.5,0,8.7-2.1,12.1-7c3.7-4.5,5.3-10.3,5.3-17
		s-1.7-12.4-5.3-16.6C2003.1,70.3,1999.1,68.1,1994.3,68.1z"/>
</g>
<g>
	<path fill="#0B4F18" d="M2189,286.9H2127V186.3c0-6.4-1-11.3-2.9-14.9c-1.9-3.7-5.1-5.5-9.2-5.5c-1.7,0-3.9,0.6-6,1.5
		c-2.1,1-4.2,2.5-5.7,3.9V287h-65.6V115.6h65.6v21.6c6-8.2,12.4-14.3,18.6-17.6c6.4-3.7,13.3-5.3,21-5.3c15.5,0,26.7,5.7,34.6,17.1
		c7.6,11.6,11.6,27.3,11.6,47.6v108.3h0.1V286.9L2189,286.9L2189,286.9z"/>
</g>
<g>
	<path fill="#0B4F18" d="M2190.1,288.2h-64.4V186.3c0-6-1-10.8-2.7-14.5c-1.7-3.5-4.4-4.8-8.2-4.8c-1.7,0-3.5,0.6-5.3,1.5
		c-1.8,1-3.7,2.1-5.1,3.5v116.2h-68.3V114.5h68.2v19c5.5-7,11.1-12.1,16.6-15.2c6.5-3.7,13.6-5.3,21.8-5.3c15.8,0,27.7,6,35.6,17.9
		c7.9,11.6,11.9,28,11.9,48.2V288.2L2190.1,288.2L2190.1,288.2z M2128.1,285.8h59.6V179.2c0-20-3.9-35.8-11.6-47.1
		c-7.5-11.1-18.9-16.6-33.5-16.6c-7.5,0-14.5,1.7-20.6,5.1c-6,3.5-12.1,9.2-18.1,17.3l-2.1,2.9V117h-63.1v168.8h63.2V171.3l0.6-0.2
		c1.7-1.7,3.9-3,6-4.2c2.5-1.2,4.5-1.7,6.5-1.7c4.8,0,8.2,2.1,10.3,6.4c1.9,3.9,2.9,9.2,2.9,15.5L2128.1,285.8L2128.1,285.8
		L2128.1,285.8z"/>
</g>
<path fill="#AEA198" d="M1917.8,50.2H2213c0.9,0,1.7,0.8,1.9,1.7v11c-0.2,0.9-1,1.7-1.9,1.7h-295.3V50.2z"/>
<text transform="matrix(1 0 0 1 1911.6455 476.291)" fill="#0B4F18" font-family="'ChalkboardSE-Bold'" font-size="61.2758">pencil</text>
<text transform="matrix(1 0 0 1 1911.6455 476.291)" fill="#0B4F18" font-family="'ChalkboardSE-Bold'" font-size="61.2758">pencil</text>
<text transform="matrix(1 0 0 1 1911.6455 476.291)" fill="none" stroke="#0B4F18" stroke-width="1.2075" stroke-miterlimit="10" font-family="'ChalkboardSE-Bold'" font-size="61.2758">pencil</text>
<text transform="matrix(1 0 0 1 2079.541 476.291)" fill="#42413F" font-family="'ChalkboardSE-Bold'" font-size="61.2758">-</text>
<text transform="matrix(1 0 0 1 2079.541 476.291)" fill="none" stroke="#42413F" stroke-width="1.2075" stroke-miterlimit="10" font-family="'ChalkboardSE-Bold'" font-size="61.2758">-</text>
<text transform="matrix(1 0 0 1 2111.4043 476.291)" fill="#FDBA1C" font-family="'ChalkboardSE-Bold'" font-size="61.2758">u</text>
<text transform="matrix(1 0 0 1 2111.4043 476.291)" fill="none" stroke="#FDBA1C" stroke-width="1.2075" stroke-miterlimit="10" font-family="'ChalkboardSE-Bold'" font-size="61.2758">u</text>
<text transform="matrix(1 0 0 1 2145.2087 476.291)" fill="#42413F" font-family="'ChalkboardSE-Bold'" font-size="61.2758">-</text>
<text transform="matrix(1 0 0 1 2145.2087 476.291)" fill="none" stroke="#42413F" stroke-width="1.2075" stroke-miterlimit="10" font-family="'ChalkboardSE-Bold'" font-size="61.2758">-</text>
<text transform="matrix(1 0 0 1 2177.0732 476.291)" fill="#CE1938" font-family="'ChalkboardSE-Bold'" font-size="61.2758">in</text>
<text transform="matrix(1 0 0 1 2177.0732 476.291)" fill="none" stroke="#CE1938" stroke-width="1.2075" stroke-miterlimit="10" font-family="'ChalkboardSE-Bold'" font-size="61.2758">in</text>
</svg>
